<?xml version="1.0" encoding="UTF-8"?>
<svg width="16" height="16" viewBox="0 0 16 16" xmlns="http://www.w3.org/2000/svg">
  <g id="add-logical-volume">
    <path d="M6.25 9C6.44891 9 6.63968 9.07902 6.78033 9.21967C6.92098 9.36032 7 9.55109 7 9.75V14.25C7 14.4489 6.92098 14.6397 6.78033 14.7803C6.63968 14.921 6.44891 15 6.25 15H1.75C1.55109 15 1.36032 14.921 1.21967 14.7803C1.07902 14.6397 1 14.4489 1 14.25V9.75C1 9.55109 1.07902 9.36032 1.21967 9.21967C1.36032 9.07902 1.55109 9 1.75 9H6.25ZM12.763 8.975V11.249L15.038 11.25V12.75H12.763V14.981H11.263V12.75L9.032 12.751V11.251H11.262V8.974H12.762L12.763 8.975ZM5.5 10.5H2.5V13.5H5.5V10.5ZM6.25 1C6.44891 1 6.63968 1.07902 6.78033 1.21967C6.92098 1.36032 7 1.55109 7 1.75V6.25C7 6.44891 6.92098 6.63968 6.78033 6.78033C6.63968 6.92098 6.44891 7 6.25 7H1.75C1.55109 7 1.36032 6.92098 1.21967 6.78033C1.07902 6.63968 1 6.44891 1 6.25V1.75C1 1.55109 1.07902 1.36032 1.21967 1.21967C1.36032 1.07902 1.55109 1 1.75 1H6.25ZM14.25 1C14.4489 1 14.6397 1.07902 14.7803 1.21967C14.921 1.36032 15 1.55109 15 1.75V6.25C15 6.44891 14.921 6.63968 14.7803 6.78033C14.6397 6.92098 14.4489 7 14.25 7H9.75C9.55109 7 9.36032 6.92098 9.21967 6.78033C9.07902 6.63968 9 6.44891 9 6.25V1.75C9 1.55109 9.07902 1.36032 9.21967 1.21967C9.36032 1.07902 9.55109 1 9.75 1H14.25ZM5.5 2.5H2.5V5.5H5.5V2.5ZM13.5 2.5H10.5V5.5H13.5V2.5Z" fill="currentColor"/>
  </g>
</svg>