<?xml version="1.0" encoding="UTF-8"?>
<svg width="16" height="16" viewBox="0 0 16 16" xmlns="http://www.w3.org/2000/svg">
  <g id="anchor">
    <path d="M7.99988 1C8.59726 0.999884 9.17493 1.21368 9.6283 1.60268C10.0817 1.99168 10.3808 2.53016 10.4714 3.12062C10.5621 3.71108 10.4383 4.31448 10.1225 4.82157C9.80671 5.32865 9.31978 5.7059 8.74988 5.885V6.953H11.0199V8.453H8.74988V13.475C11.1879 13.314 12.9219 12.398 12.9219 11.806H14.4219C14.4219 13.57 11.5469 15 7.99988 15C4.45288 15 1.57788 13.57 1.57788 11.806H3.07788C3.07788 12.398 4.81188 13.314 7.24988 13.476V8.452H4.90388V6.952H7.24988V5.886C6.68051 5.70628 6.19423 5.32879 5.87892 4.82178C5.56361 4.31477 5.44009 3.71169 5.53067 3.12154C5.62126 2.53139 5.91998 1.99312 6.37284 1.60403C6.8257 1.21493 7.40282 1.00068 7.99988 1ZM7.99988 2.5C7.73466 2.5 7.48031 2.60536 7.29277 2.79289C7.10524 2.98043 6.99988 3.23478 6.99988 3.5C6.99988 3.76522 7.10524 4.01957 7.29277 4.20711C7.48031 4.39464 7.73466 4.5 7.99988 4.5C8.2651 4.5 8.51945 4.39464 8.70699 4.20711C8.89452 4.01957 8.99988 3.76522 8.99988 3.5C8.99988 3.23478 8.89452 2.98043 8.70699 2.79289C8.51945 2.60536 8.2651 2.5 7.99988 2.5Z" fill="currentColor"/>
  </g>
</svg>