<?xml version="1.0" encoding="UTF-8"?>
<svg width="16" height="16" viewBox="0 0 16 16" xmlns="http://www.w3.org/2000/svg">
  <g id="applications">
    <path d="M8 1C8.71917 0.999894 9.41445 1.25814 9.95918 1.72769C10.5039 2.19725 10.8618 2.84686 10.9677 3.55819C11.0736 4.26952 10.9205 4.99523 10.5362 5.60311C10.1519 6.21099 9.56201 6.66059 8.874 6.87C8.663 7.428 8.294 8.068 7.711 8.702C7.63331 8.78687 7.55328 8.86957 7.471 8.95C7.08192 9.33352 6.64055 9.66009 6.16 9.92C6.52 10.29 6.783 10.757 6.912 11.276H9.088C9.26406 10.5671 9.69261 9.94682 10.2933 9.53131C10.894 9.1158 11.6256 8.93363 12.351 9.01894C13.0764 9.10425 13.7458 9.45118 14.2337 9.9947C14.7216 10.5382 14.9946 11.241 15.0014 11.9714C15.0082 12.7018 14.7484 13.4096 14.2707 13.9621C13.793 14.5146 13.1302 14.874 12.4065 14.9728C11.6829 15.0716 10.948 14.9031 10.3396 14.4989C9.73129 14.0947 9.29126 13.4825 9.102 12.777H6.898C6.70828 13.4788 6.27029 14.0878 5.66537 14.491C5.06046 14.8942 4.32976 15.0641 3.60903 14.9691C2.8883 14.8742 2.22653 14.5208 1.74667 13.9747C1.26682 13.4287 1.00149 12.727 1 12C1 11.2044 1.31607 10.4413 1.87868 9.87868C2.44129 9.31607 3.20435 9 4 9L4.12 9.005C4.98 8.913 5.74 8.541 6.424 7.875C6.72556 7.584 6.98476 7.25209 7.194 6.889C6.49607 6.69368 5.89243 6.2523 5.49468 5.64646C5.09692 5.04061 4.93193 4.31125 5.03021 3.5932C5.12849 2.87514 5.48338 2.21694 6.0293 1.74024C6.57522 1.26355 7.27525 1.0006 8 1ZM4.15 10.507L3.956 10.521L3.72 10.526C3.34754 10.5969 3.01575 10.8062 2.79138 11.1119C2.56701 11.4175 2.4667 11.7968 2.51063 12.1734C2.55457 12.55 2.73949 12.8959 3.02819 13.1417C3.3169 13.3875 3.68796 13.5148 4.06674 13.4981C4.44552 13.4813 4.80391 13.3218 5.06981 13.0515C5.33572 12.7812 5.4894 12.4203 5.49995 12.0413C5.5105 11.6623 5.37713 11.2933 5.12668 11.0087C4.87622 10.724 4.52726 10.5448 4.15 10.507ZM12 10.5C11.6022 10.5 11.2206 10.658 10.9393 10.9393C10.658 11.2206 10.5 11.6022 10.5 12C10.5 12.3978 10.658 12.7794 10.9393 13.0607C11.2206 13.342 11.6022 13.5 12 13.5C12.3978 13.5 12.7794 13.342 13.0607 13.0607C13.342 12.7794 13.5 12.3978 13.5 12C13.5 11.6022 13.342 11.2206 13.0607 10.9393C12.7794 10.658 12.3978 10.5 12 10.5ZM8 2.5C7.60218 2.5 7.22064 2.65804 6.93934 2.93934C6.65804 3.22064 6.5 3.60218 6.5 4C6.5 4.39782 6.65804 4.77936 6.93934 5.06066C7.22064 5.34196 7.60218 5.5 8 5.5C8.39782 5.5 8.77936 5.34196 9.06066 5.06066C9.34196 4.77936 9.5 4.39782 9.5 4C9.5 3.60218 9.34196 3.22064 9.06066 2.93934C8.77936 2.65804 8.39782 2.5 8 2.5Z" fill="currentColor"/>
  </g>
</svg>