<?xml version="1.0" encoding="UTF-8"?>
<svg width="16" height="16" viewBox="0 0 16 16" xmlns="http://www.w3.org/2000/svg">
  <g id="blueprint">
    <path fill-rule="evenodd" clip-rule="evenodd" d="M12.5 8.60452V2.58535C13.0826 2.79127 13.5 3.34689 13.5 4V8.99366C13.1904 8.82061 12.8546 8.68837 12.5 8.60452ZM15 4C15 2.5135 13.9189 1.27952 12.5 1.04148C12.3374 1.0142 12.1704 1 12 1H11V4H1V14H12C13.6569 14 15 12.6569 15 11V4ZM13.5 10.9335C13.0611 10.3657 12.3732 10 11.6 10H11V5.5H2.5V12.5H12C12.8284 12.5 13.5 11.8284 13.5 11V10.9335Z" fill="currentColor"/>
  </g>
</svg>