<?xml version="1.0" encoding="UTF-8"?>
<svg width="16" height="16" viewBox="0 0 16 16" xmlns="http://www.w3.org/2000/svg">
  <g id="book">
    <path fill-rule="evenodd" clip-rule="evenodd" d="M11.5 2.5H5C4.72386 2.5 4.5 2.72386 4.5 3C4.5 3.27614 4.72386 3.5 5 3.5H11.5V2.5ZM5 1C3.89543 1 3 1.89543 3 3V13C3 14.1046 3.89543 15 5 15H14V3.5H13V1H5ZM12.5 5V13.5H5C4.72386 13.5 4.5 13.2761 4.5 13V4.98228C4.58165 4.99396 4.66512 5 4.75 5H12.5ZM6.15837 7.25V8.75H10.9917V7.25H6.15837Z" fill="currentColor"/>
  </g>
</svg>