<?xml version="1.0" encoding="UTF-8"?>
<svg width="16" height="16" viewBox="0 0 16 16" xmlns="http://www.w3.org/2000/svg">
  <g id="bundle">
    <path d="M5 1C5.53043 1 6.03914 1.21071 6.41421 1.58579C6.78929 1.96086 7 2.46957 7 3V3.25H9V3C9 2.46957 9.21071 1.96086 9.58579 1.58579C9.96086 1.21071 10.4696 1 11 1H13C13.5304 1 14.0391 1.21071 14.4142 1.58579C14.7893 1.96086 15 2.46957 15 3V5C15 5.53043 14.7893 6.03914 14.4142 6.41421C14.0391 6.78929 13.5304 7 13 7H11C10.832 7 10.669 6.98 10.513 6.94L8.815 10.16C8.934 10.416 9 10.7 9 11.001V13.001C9 13.5314 8.78929 14.0401 8.41421 14.4152C8.03914 14.7903 7.53043 15.001 7 15.001H5C4.46957 15.001 3.96086 14.7903 3.58579 14.4152C3.21071 14.0401 3 13.5314 3 13.001V11.001C3 10.4706 3.21071 9.96186 3.58579 9.58679C3.96086 9.21171 4.46957 9.001 5 9.001H7C7.235 9.001 7.46 9.041 7.67 9.116L9.29 6.04C9.09934 5.72668 8.99898 5.36677 9 5V4.75H7V5C7 5.53043 6.78929 6.03914 6.41421 6.41421C6.03914 6.78929 5.53043 7 5 7H3C2.46957 7 1.96086 6.78929 1.58579 6.41421C1.21071 6.03914 1 5.53043 1 5V3C1 2.46957 1.21071 1.96086 1.58579 1.58579C1.96086 1.21071 2.46957 1 3 1H5ZM7 10.5H5C4.88297 10.5 4.76964 10.541 4.67974 10.6159C4.58984 10.6908 4.52906 10.7949 4.508 10.91L4.5 11V13C4.49996 13.117 4.54097 13.2304 4.61589 13.3203C4.69081 13.4102 4.79489 13.4709 4.91 13.492L5 13.5H7C7.11703 13.5 7.23036 13.459 7.32026 13.3841C7.41016 13.3092 7.47094 13.2051 7.492 13.09L7.5 13V11C7.50004 10.883 7.45903 10.7696 7.38411 10.6797C7.30919 10.5898 7.20511 10.5291 7.09 10.508L7 10.5ZM5 2.5H3C2.88297 2.49996 2.76964 2.54097 2.67974 2.61589C2.58984 2.69081 2.52906 2.79489 2.508 2.91L2.5 3V5C2.49996 5.11703 2.54097 5.23036 2.61589 5.32026C2.69081 5.41016 2.79489 5.47094 2.91 5.492L3 5.5H5C5.11703 5.50004 5.23036 5.45903 5.32026 5.38411C5.41016 5.30919 5.47094 5.20511 5.492 5.09L5.5 5V3C5.50004 2.88297 5.45903 2.76964 5.38411 2.67974C5.30919 2.58984 5.20511 2.52906 5.09 2.508L5 2.5ZM13 2.5H11C10.883 2.49996 10.7696 2.54097 10.6797 2.61589C10.5898 2.69081 10.5291 2.79489 10.508 2.91L10.5 3V5C10.5 5.11703 10.541 5.23036 10.6159 5.32026C10.6908 5.41016 10.7949 5.47094 10.91 5.492L11 5.5H13C13.117 5.50004 13.2304 5.45903 13.3203 5.38411C13.4102 5.30919 13.4709 5.20511 13.492 5.09L13.5 5V3C13.5 2.88297 13.459 2.76964 13.3841 2.67974C13.3092 2.58984 13.2051 2.52906 13.09 2.508L13 2.5Z" fill="currentColor"/>
  </g>
</svg>