<?xml version="1.0" encoding="UTF-8"?>
<svg width="16" height="16" viewBox="0 0 16 16" xmlns="http://www.w3.org/2000/svg">
  <g id="canvas">
    <path d="M13.5 4C13.8978 4 14.2794 4.15804 14.5607 4.43934C14.842 4.72064 15 5.10218 15 5.5V12.5C15 12.8978 14.842 13.2794 14.5607 13.5607C14.2794 13.842 13.8978 14 13.5 14H4.5C4.10269 14 3.72162 13.8424 3.4404 13.5617C3.15918 13.2811 3.00079 12.9003 3 12.503H12.504C12.7546 12.5029 12.996 12.4087 13.1805 12.239C13.3649 12.0694 13.479 11.8367 13.5 11.587V4ZM10.5 2C10.8978 2 11.2794 2.15804 11.5607 2.43934C11.842 2.72064 12 3.10218 12 3.5V9.5C12 9.89782 11.842 10.2794 11.5607 10.5607C11.2794 10.842 10.8978 11 10.5 11H2.5C2.10218 11 1.72064 10.842 1.43934 10.5607C1.15804 10.2794 1 9.89782 1 9.5V3.5C1 3.10218 1.15804 2.72064 1.43934 2.43934C1.72064 2.15804 2.10218 2 2.5 2H10.5ZM10.5 3.5H2.5V9.5H10.5V3.5Z" fill="currentColor"/>
  </g>
</svg>