<?xml version="1.0" encoding="UTF-8"?>
<svg width="16" height="16" viewBox="0 0 16 16" xmlns="http://www.w3.org/2000/svg">
  <g id="certificate">
    <path fill-rule="evenodd" clip-rule="evenodd" d="M13 2C14.1046 2 15 2.89543 15 4V11C15 12.1046 14.1046 13 13 13H12V11.5H13C13.2455 11.5 13.4496 11.3231 13.4919 11.0899L13.5 11V4C13.5 3.75454 13.3231 3.55039 13.0899 3.50806L13 3.5H3C2.75454 3.5 2.55039 3.67688 2.50806 3.91012L2.5 4V11C2.5 11.2455 2.67688 11.4496 2.91012 11.4919L3 11.5H7V13H3C1.89543 13 1 12.1046 1 11V4C1 2.89543 1.89543 2 3 2H13ZM9.5 7C10.8807 7 12 8.11929 12 9.5C12 10.3175 11.6076 11.0433 11.001 11.4995L11 16L9.5 14.9561L8 16L8.00004 11.5002C7.3928 11.0441 7 10.3179 7 9.5C7 8.11929 8.11929 7 9.5 7ZM8.5 9.5C8.5 8.94772 8.94772 8.5 9.5 8.5C10.0523 8.5 10.5 8.94772 10.5 9.5C10.5 10.0523 10.0523 10.5 9.5 10.5C8.94772 10.5 8.5 10.0523 8.5 9.5Z" fill="currentColor"/>
  </g>
</svg>