<?xml version="1.0" encoding="UTF-8"?>
<svg width="16" height="16" viewBox="0 0 16 16" xmlns="http://www.w3.org/2000/svg">
  <g id="certification">
    <path d="M6.48808 0.474996C6.25253 0.470689 6.0197 0.525892 5.81116 0.635494C5.60263 0.745095 5.42512 0.905549 5.29508 1.102L4.98808 1.564C4.78908 1.864 4.48808 2.083 4.14108 2.18L3.60508 2.33C3.29999 2.41522 3.03269 2.6011 2.84661 2.85744C2.66053 3.11378 2.56659 3.42552 2.58008 3.742L2.60408 4.297C2.61908 4.657 2.50308 5.011 2.27908 5.293L1.93608 5.729C1.73877 5.97682 1.63135 6.28422 1.63135 6.601C1.63135 6.91777 1.73877 7.22517 1.93608 7.473L2.27908 7.908C2.50308 8.19 2.61908 8.545 2.60408 8.904L2.58008 9.459C2.56659 9.77547 2.66053 10.0872 2.84661 10.3435C3.03269 10.5999 3.29999 10.7858 3.60508 10.871L4.14108 11.021C4.48708 11.118 4.78908 11.337 4.98808 11.637L5.00408 11.66V15.547L8.00408 13.959L11.0041 15.547V11.648L11.1041 11.514C11.2981 11.277 11.5621 11.104 11.8591 11.021L12.3951 10.871C12.7 10.7858 12.9672 10.6001 13.1532 10.3439C13.3393 10.0878 13.4333 9.7763 13.4201 9.46L13.3961 8.905C13.3811 8.545 13.4971 8.191 13.7211 7.909L14.0641 7.474C14.2614 7.22617 14.3688 6.91877 14.3688 6.602C14.3688 6.28523 14.2614 5.97782 14.0641 5.73L13.7211 5.294C13.4966 5.01185 13.3812 4.65827 13.3961 4.298L13.4201 3.743C13.4336 3.42652 13.3396 3.11478 13.1535 2.85844C12.9675 2.6021 12.7002 2.41622 12.3951 2.331L11.8591 2.181C11.5119 2.0841 11.2112 1.86543 11.0121 1.565L10.7051 1.103C10.53 0.838835 10.2706 0.641699 9.9692 0.543655C9.66781 0.445611 9.34211 0.452428 9.04508 0.562996L8.52308 0.756996C8.18608 0.881996 7.81408 0.881996 7.47708 0.756996L6.95508 0.562996C6.80556 0.507264 6.64762 0.477502 6.48808 0.474996ZM6.50408 1.995L6.95408 2.162L7.15808 2.23C7.77708 2.411 8.43908 2.388 9.04708 2.162L9.49708 1.994L9.76208 2.394L9.88908 2.57C10.2831 3.08 10.8311 3.45 11.4551 3.625L11.9181 3.754L11.8981 4.234L11.8961 4.449C11.9161 5.093 12.1421 5.717 12.5451 6.225L12.8421 6.6L12.5451 6.977L12.4181 7.15C12.0535 7.68382 11.8711 8.32112 11.8981 8.967L11.9181 9.445L11.4551 9.576L11.2501 9.641C10.6414 9.85915 10.1195 10.2681 9.76208 10.807L9.49608 11.205L9.04608 11.039L8.84208 10.971C8.22153 10.7895 7.55897 10.8134 6.95308 11.039L6.50308 11.205L6.23808 10.807L6.11108 10.631C5.71624 10.1199 5.16703 9.74994 4.54508 9.576L4.08008 9.446L4.10208 8.966L4.10408 8.752C4.08463 8.10586 3.857 7.48329 3.45508 6.977L3.15608 6.6L3.45608 6.225L3.58408 6.051C3.94794 5.51693 4.12962 4.87965 4.10208 4.234L4.08008 3.754L4.54508 3.625L4.75008 3.559C5.35849 3.34137 5.88038 2.93312 6.23808 2.395L6.50408 1.995ZM8.96008 4.528L7.19908 7.19L6.51808 6.6L5.53508 7.733L6.21908 8.325L7.50808 9.442L8.45108 8.019L10.2111 5.356L8.96008 4.528Z" fill="currentColor"/>
  </g>
</svg>