<?xml version="1.0" encoding="UTF-8"?>
<svg width="16" height="16" viewBox="0 0 16 16" xmlns="http://www.w3.org/2000/svg">
  <g id="change-version">
    <path fill-rule="evenodd" clip-rule="evenodd" d="M5.94809 9.012V10.512L3.49009 10.513C3.96131 11.3587 4.66081 12.0549 5.50874 12.522C6.35667 12.9892 7.31886 13.2086 8.2855 13.1551C9.25213 13.1016 10.1842 12.7774 10.9755 12.2195C11.7667 11.6616 12.3851 10.8925 12.7601 10H14.3561C13.9809 11.1896 13.2794 12.25 12.3314 13.0607C11.3833 13.8714 10.2269 14.3997 8.99343 14.5857C7.76 14.7717 6.49914 14.6078 5.35424 14.1127C4.20934 13.6176 3.22636 12.8111 2.51709 11.785V13.943H1.01709V9.013H5.94709L5.94809 9.012ZM8.00009 1.338C9.08862 1.33726 10.1607 1.60353 11.1224 2.11349C12.0841 2.62345 12.906 3.36152 13.5161 4.263V2.11H15.0161V7.04H10.0861V5.54H12.5391C12.0753 4.68436 11.3792 3.97722 10.531 3.50012C9.68269 3.02302 8.71686 2.79539 7.74482 2.84347C6.77278 2.89156 5.83413 3.2134 5.0371 3.77189C4.24007 4.33038 3.61712 5.10277 3.24009 6H1.64309C2.06914 4.64785 2.91524 3.46678 4.05844 2.62839C5.20165 1.79 6.58241 1.33798 8.00009 1.338Z" fill="currentColor"/>
  </g>
</svg>