<?xml version="1.0" encoding="UTF-8"?>
<svg width="16" height="16" viewBox="0 0 16 16" xmlns="http://www.w3.org/2000/svg">
  <g id="code">
    <path d="M5.38477 2.09V3.47L5.65477 3.498C6.00477 3.539 6.32277 3.6 6.60677 3.68C6.89077 3.76 7.12577 3.834 7.31077 3.9L7.43977 3.95L7.01977 5.495L6.83977 5.425C6.56228 5.32446 6.27912 5.24032 5.99177 5.173C5.59151 5.07723 5.18132 5.02923 4.76977 5.03C4.28977 5.03 3.95777 5.115 3.77277 5.285C3.68583 5.35898 3.61596 5.45093 3.56797 5.55451C3.51997 5.65809 3.495 5.77084 3.49477 5.885C3.49477 6.045 3.52677 6.178 3.59177 6.283C3.6679 6.39823 3.77084 6.49328 3.89177 6.56C4.02677 6.64 4.18977 6.718 4.37977 6.793L4.69077 6.911L5.05477 7.041C5.44477 7.191 5.80477 7.348 6.13477 7.513C6.46477 7.678 6.74977 7.868 6.98977 8.083C7.22976 8.298 7.41777 8.55 7.55277 8.84C7.68777 9.13 7.75477 9.47 7.75477 9.86C7.75477 10.13 7.71477 10.398 7.63477 10.663C7.55274 10.932 7.41776 11.1819 7.23777 11.398C7.05177 11.623 6.80777 11.818 6.50177 11.983C6.21143 12.1328 5.90032 12.2383 5.57877 12.296L5.35477 12.336V13.94H3.64477V12.35L3.38177 12.322C2.87177 12.261 2.45177 12.17 2.12177 12.05C1.86248 11.9593 1.609 11.8528 1.36277 11.731L1.25977 11.675L1.82977 10.205L2.02877 10.294C2.30177 10.41 2.61077 10.518 2.95477 10.618C3.38477 10.743 3.83977 10.805 4.31977 10.805C4.87977 10.805 5.26977 10.733 5.48977 10.588C5.70976 10.443 5.81977 10.215 5.81977 9.905C5.82407 9.74074 5.77952 9.57891 5.69177 9.44C5.59322 9.29733 5.46538 9.17732 5.31677 9.088C5.12572 8.97061 4.92211 8.87501 4.70977 8.803L3.89977 8.51C3.60977 8.41 3.32477 8.295 3.04477 8.165C2.77497 8.04157 2.52276 7.88285 2.29477 7.693C2.07361 7.50629 1.89263 7.27666 1.76277 7.018C1.62777 6.753 1.55977 6.425 1.55977 6.035C1.55977 5.755 1.59677 5.485 1.67277 5.225C1.74777 4.965 1.86677 4.725 2.03277 4.505C2.19677 4.285 2.41477 4.093 2.68477 3.928C2.90077 3.796 3.15477 3.688 3.44777 3.604L3.67477 3.545V2.09H5.38477ZM14.9878 11.25V12.75H8.98177V11.25H14.9878Z" fill="currentColor"/>
  </g>
</svg>