<?xml version="1.0" encoding="UTF-8"?>
<svg width="16" height="16" viewBox="0 0 16 16" xmlns="http://www.w3.org/2000/svg">
  <g id="collapse">
    <path d="M12 1C12.7956 1 13.5587 1.31607 14.1213 1.87868C14.6839 2.44129 15 3.20435 15 4V12C15 12.7956 14.6839 13.5587 14.1213 14.1213C13.5587 14.6839 12.7956 15 12 15H4C3.20435 15 2.44129 14.6839 1.87868 14.1213C1.31607 13.5587 1 12.7956 1 12V4C1 3.20435 1.31607 2.44129 1.87868 1.87868C2.44129 1.31607 3.20435 1 4 1H12ZM12 2.5H4C3.62712 2.50002 3.26761 2.63892 2.99158 2.88962C2.71555 3.14032 2.5428 3.48484 2.507 3.856L2.5 4V12C2.50002 12.3729 2.63892 12.7324 2.88962 13.0084C3.14032 13.2844 3.48484 13.4572 3.856 13.493L4 13.5H12C12.3729 13.5 12.7324 13.3611 13.0084 13.1104C13.2844 12.8597 13.4572 12.5152 13.493 12.144L13.5 12V4C13.5 3.62712 13.3611 3.26761 13.1104 2.99158C12.8597 2.71555 12.5152 2.5428 12.144 2.507L12 2.5ZM8.027 5.282L11.787 9.042L10.727 10.103L8.026 7.403L5.327 10.103L4.267 9.043L8.027 5.282Z" fill="currentColor"/>
  </g>
</svg>