<?xml version="1.0" encoding="UTF-8"?>
<svg width="16" height="16" viewBox="0 0 16 16" xmlns="http://www.w3.org/2000/svg">
  <g id="controllers">
    <path d="M12.9501 3.05001C14.2629 4.36283 15.0005 6.1434 15.0005 8.00001C15.0005 9.85662 14.2629 11.6372 12.9501 12.95C11.6373 14.2628 9.85672 15.0004 8.00011 15.0004C6.1435 15.0004 4.36293 14.2628 3.05011 12.95C1.73729 11.6372 0.999756 9.85662 0.999756 8.00001C0.999756 6.1434 1.73729 4.36283 3.05011 3.05001C4.36293 1.73718 6.1435 0.999649 8.00011 0.999649C9.85672 0.999649 11.6373 1.73718 12.9501 3.05001ZM4.11011 4.11001C3.36389 4.8564 2.84818 5.80175 2.62454 6.83323C2.40089 7.86471 2.47876 8.93875 2.84884 9.92718C3.21893 10.9156 3.8656 11.7767 4.71168 12.4077C5.55777 13.0386 6.56753 13.4128 7.62046 13.4856C8.67339 13.5583 9.72503 13.3266 10.6499 12.818C11.5747 12.3094 12.3337 11.5455 12.8362 10.6174C13.3387 9.68925 13.5636 8.63613 13.484 7.58369C13.4043 6.53126 13.0236 5.52396 12.3871 4.68201L9.00711 8.06201L7.94811 7.00001L11.3281 3.62001C10.2692 2.81578 8.95488 2.42231 7.62826 2.5124C6.30165 2.60248 5.05256 3.17002 4.11211 4.11001H4.11011Z" fill="currentColor"/>
  </g>
</svg>