<?xml version="1.0" encoding="UTF-8"?>
<svg width="16" height="16" viewBox="0 0 16 16"  xmlns="http://www.w3.org/2000/svg">
  <g id="copy" clip-path="url(#clip0_3017_15)">
<path d="M13.731 9.99999V12.274H16.006V13.774H13.731V16.006H12.231V13.774H10V12.274H12.231V9.99999H13.731ZM11 4.94799H5V3.49999H3.5V13.5H8.5V15H3.5C3.10218 15 2.72064 14.842 2.43934 14.5607C2.15804 14.2794 2 13.8978 2 13.5V3.49999C2 3.10217 2.15804 2.72064 2.43934 2.43933C2.72064 2.15803 3.10218 1.99999 3.5 1.99999H5.17C5.3766 1.41446 5.75974 0.907427 6.2666 0.548783C6.77346 0.190139 7.37909 -0.00245667 8 -0.00245667C8.62091 -0.00245667 9.22654 0.190139 9.7334 0.548783C10.2403 0.907427 10.6234 1.41446 10.83 1.99999H12.5C12.8978 1.99999 13.2794 2.15803 13.5607 2.43933C13.842 2.72064 14 3.10217 14 3.49999V7.20899H12.5V3.49999H11V4.94799ZM8 1.49999C7.62712 1.50001 7.26761 1.63891 6.99158 1.88961C6.71555 2.14031 6.5428 2.48483 6.507 2.85599L6.5 2.99999V3.44699H9.5V2.99999C9.49998 2.62711 9.36108 2.2676 9.11038 1.99158C8.85968 1.71555 8.51516 1.54279 8.144 1.50699L8 1.49999Z" fill="currentColor"/>
</g>
<defs>
<clipPath id="clip0_3017_15">
<rect width="16" height="16" fill="currentColor"/>
</clipPath>
</defs>
</svg>