<?xml version="1.0" encoding="UTF-8"?>
<svg width="16" height="16" viewBox="0 0 16 16" xmlns="http://www.w3.org/2000/svg">
  <g id="delete">
    <path fill-rule="evenodd" clip-rule="evenodd" d="M4.5 6V12C4.50002 12.3729 4.63892 12.7324 4.88962 13.0084C5.14032 13.2844 5.48484 13.4572 5.856 13.493L6 13.5H10C10.3729 13.5 10.7324 13.3611 11.0084 13.1104C11.2844 12.8597 11.4572 12.5152 11.493 12.144L11.5 12V6H13V12C13 12.7956 12.6839 13.5587 12.1213 14.1213C11.5587 14.6839 10.7956 15 10 15H6C5.20435 15 4.44129 14.6839 3.87868 14.1213C3.31607 13.5587 3 12.7956 3 12V6H4.5ZM7.5 6V11.994H6V6H7.5ZM9.998 6V11.994H8.498V6H9.998ZM8.5 0C9.16304 0 9.79893 0.263392 10.2678 0.732233C10.7366 1.20107 11 1.83696 11 2.5V3H14V4.5H2V3H5V2.5C5 1.83696 5.26339 1.20107 5.73223 0.732233C6.20107 0.263392 6.83696 0 7.5 0L8.5 0ZM8.5 1.5H7.5C7.25507 1.50003 7.01866 1.58996 6.83563 1.75272C6.65259 1.91547 6.53566 2.13975 6.507 2.383L6.5 2.5V3H9.5V2.5C9.49997 2.25507 9.41004 2.01866 9.24728 1.83563C9.08453 1.65259 8.86025 1.53566 8.617 1.507L8.5 1.5Z" fill="currentColor"/>
  </g>
</svg>