<?xml version="1.0" encoding="UTF-8"?>
<svg width="16" height="16" viewBox="0 0 16 16" xmlns="http://www.w3.org/2000/svg">
  <g id="drag">
    <path fill-rule="evenodd" clip-rule="evenodd" d="M11 12.49C11.3978 12.49 11.7794 12.648 12.0607 12.9293C12.342 13.2106 12.5 13.5922 12.5 13.99C12.5 14.3878 12.342 14.7694 12.0607 15.0507C11.7794 15.332 11.3978 15.49 11 15.49C10.6022 15.49 10.2206 15.332 9.93934 15.0507C9.65804 14.7694 9.5 14.3878 9.5 13.99C9.5 13.5922 9.65804 13.2106 9.93934 12.9293C10.2206 12.648 10.6022 12.49 11 12.49ZM5 12.49C5.39782 12.49 5.77936 12.648 6.06066 12.9293C6.34196 13.2106 6.5 13.5922 6.5 13.99C6.5 14.3878 6.34196 14.7694 6.06066 15.0507C5.77936 15.332 5.39782 15.49 5 15.49C4.60218 15.49 4.22064 15.332 3.93934 15.0507C3.65804 14.7694 3.5 14.3878 3.5 13.99C3.5 13.5922 3.65804 13.2106 3.93934 12.9293C4.22064 12.648 4.60218 12.49 5 12.49ZM11 6.49999C11.3978 6.49999 11.7794 6.65803 12.0607 6.93933C12.342 7.22064 12.5 7.60217 12.5 7.99999C12.5 8.39782 12.342 8.77935 12.0607 9.06065C11.7794 9.34196 11.3978 9.49999 11 9.49999C10.6022 9.49999 10.2206 9.34196 9.93934 9.06065C9.65804 8.77935 9.5 8.39782 9.5 7.99999C9.5 7.60217 9.65804 7.22064 9.93934 6.93933C10.2206 6.65803 10.6022 6.49999 11 6.49999ZM5 6.49999C5.39782 6.49999 5.77936 6.65803 6.06066 6.93933C6.34196 7.22064 6.5 7.60217 6.5 7.99999C6.5 8.39782 6.34196 8.77935 6.06066 9.06065C5.77936 9.34196 5.39782 9.49999 5 9.49999C4.60218 9.49999 4.22064 9.34196 3.93934 9.06065C3.65804 8.77935 3.5 8.39782 3.5 7.99999C3.5 7.60217 3.65804 7.22064 3.93934 6.93933C4.22064 6.65803 4.60218 6.49999 5 6.49999ZM11 0.509995C11.3978 0.509995 11.7794 0.66803 12.0607 0.949334C12.342 1.23064 12.5 1.61217 12.5 2.00999C12.5 2.40782 12.342 2.78935 12.0607 3.07065C11.7794 3.35196 11.3978 3.50999 11 3.50999C10.6022 3.50999 10.2206 3.35196 9.93934 3.07065C9.65804 2.78935 9.5 2.40782 9.5 2.00999C9.5 1.61217 9.65804 1.23064 9.93934 0.949334C10.2206 0.66803 10.6022 0.509995 11 0.509995ZM5 0.509995C5.39782 0.509995 5.77936 0.66803 6.06066 0.949334C6.34196 1.23064 6.5 1.61217 6.5 2.00999C6.5 2.40782 6.34196 2.78935 6.06066 3.07065C5.77936 3.35196 5.39782 3.50999 5 3.50999C4.60218 3.50999 4.22064 3.35196 3.93934 3.07065C3.65804 2.78935 3.5 2.40782 3.5 2.00999C3.5 1.61217 3.65804 1.23064 3.93934 0.949334C4.22064 0.66803 4.60218 0.509995 5 0.509995Z" fill="currentColor"/>
  </g>
</svg>