<?xml version="1.0" encoding="UTF-8"?>
<svg width="16" height="16" viewBox="0 0 16 16" xmlns="http://www.w3.org/2000/svg">
  <g id="edit">
    <path d="M14 13.25V14.75H2V13.25H14ZM11.907 1.67599L12.487 2.25599C12.6728 2.44172 12.8202 2.66224 12.9208 2.90494C13.0213 3.14764 13.0731 3.40778 13.0731 3.67049C13.0731 3.93321 13.0213 4.19334 12.9208 4.43605C12.8202 4.67875 12.6728 4.89927 12.487 5.08499L7.354 10.218C7.316 10.256 7.275 10.291 7.232 10.322L7.242 10.33C6.76711 10.8048 6.174 11.1442 5.524 11.313L2.004 12.227L2.867 8.64399C3.005 8.07399 3.277 7.54499 3.662 7.10399L3.832 6.92099L3.842 6.93099C3.872 6.88799 3.907 6.84699 3.945 6.80899L9.078 1.67599C9.26373 1.49019 9.48424 1.3428 9.72695 1.24224C9.96965 1.14168 10.2298 1.08992 10.4925 1.08992C10.7552 1.08992 11.0153 1.14168 11.2581 1.24224C11.5008 1.3428 11.7213 1.49019 11.907 1.67599ZM8.598 4.27599L5.036 7.83999L4.443 8.65999L5.505 9.72299L6.319 9.13199L9.886 5.56399L8.598 4.27599ZM10.208 2.67899L10.138 2.73599L9.659 3.21599L10.947 4.50399L11.427 4.02399C11.5097 3.94114 11.5607 3.8319 11.5711 3.71532C11.5815 3.59874 11.5507 3.48219 11.484 3.38599L11.427 3.31699L10.846 2.73699C10.7633 2.65417 10.6541 2.60299 10.5375 2.59239C10.4209 2.5818 10.3043 2.61244 10.208 2.67899Z" fill="currentColor"/>
  </g>
</svg>