<?xml version="1.0" encoding="UTF-8"?>
<svg width="16" height="16" viewBox="0 0 16 16" xmlns="http://www.w3.org/2000/svg">
  <g id="expand">
    <path d="M12 1C12.7652 0.999957 13.5015 1.29233 14.0583 1.81728C14.615 2.34224 14.9501 3.06011 14.995 3.824L15 4V12C15 12.7652 14.7077 13.5015 14.1827 14.0583C13.6578 14.615 12.9399 14.9501 12.176 14.995L12 15H4C3.23479 15 2.49849 14.7077 1.94174 14.1827C1.38499 13.6578 1.04989 12.9399 1.005 12.176L1 12V4C0.999957 3.23479 1.29233 2.49849 1.81728 1.94174C2.34224 1.38499 3.06011 1.04989 3.824 1.005L4 1H12ZM12 2.5H4L3.856 2.507C3.50938 2.54021 3.1851 2.69298 2.93879 2.93911C2.69248 3.18524 2.53947 3.5094 2.506 3.856L2.5 4V12L2.507 12.144C2.54021 12.4906 2.69298 12.8149 2.93911 13.0612C3.18524 13.3075 3.5094 13.4605 3.856 13.494L4 13.5H12L12.144 13.493C12.4906 13.4598 12.8149 13.307 13.0612 13.0609C13.3075 12.8148 13.4605 12.4906 13.494 12.144L13.5 12V4L13.493 3.856C13.4598 3.50938 13.307 3.1851 13.0609 2.93879C12.8148 2.69248 12.4906 2.53947 12.144 2.506L12 2.5ZM10.75 5.872L11.811 6.932L8.027 10.718L4.242 6.933L5.302 5.873L8.026 8.596L10.751 5.872H10.75Z" fill="currentColor"/>
  </g>
</svg>