<?xml version="1.0" encoding="UTF-8"?>
<svg width="16" height="16" viewBox="0 0 16 16" xmlns="http://www.w3.org/2000/svg">
  <g id="exposed">
    <path d="M8 1C9.85652 1 11.637 1.7375 12.9497 3.05025C14.2625 4.36301 15 6.14348 15 8C15 9.85652 14.2625 11.637 12.9497 12.9497C11.637 14.2625 9.85652 15 8 15C6.14348 15 4.36301 14.2625 3.05025 12.9497C1.7375 11.637 1 9.85652 1 8C1 6.14348 1.7375 4.36301 3.05025 3.05025C4.36301 1.7375 6.14348 1 8 1ZM9.795 9.527L9.506 9.55C9.00474 9.58426 8.50243 9.60094 8 9.6C7.363 9.6 6.765 9.576 6.205 9.527C6.49 11.875 7.381 13.5 8 13.5C8.619 13.5 9.51 11.875 9.795 9.527ZM2.531 8.589L2.539 8.657C2.64927 9.57298 2.98802 10.4465 3.52412 11.1974C4.06022 11.9482 4.77646 12.5523 5.607 12.954C5.135 11.98 4.802 10.72 4.673 9.312C3.845 9.146 3.132 8.906 2.531 8.589ZM13.468 8.596L13.308 8.676C12.74 8.951 12.08 9.162 11.328 9.313C11.198 10.721 10.865 11.98 10.393 12.953C11.2328 12.5469 11.9556 11.934 12.4935 11.1719C13.0314 10.4097 13.3668 9.52334 13.468 8.596ZM8 2.5C7.277 2.5 6.182 4.718 6.116 7.717L6.112 8.012C6.685 8.07 7.314 8.1 8 8.1C8.685 8.1 9.314 8.07 9.888 8.012L9.887 8C9.887 4.954 8.813 2.644 8.069 2.506L8 2.5ZM5.607 3.047L5.528 3.086C4.7914 3.45715 4.14753 3.98893 3.64388 4.64212C3.14023 5.29531 2.78965 6.05324 2.618 6.86L2.638 6.876C3.108 7.26 3.768 7.558 4.616 7.764L4.613 8C4.613 6.194 4.944 4.548 5.487 3.307L5.607 3.047ZM10.393 3.047L10.439 3.144C11.001 4.35 11.356 5.971 11.385 7.764C12.155 7.579 12.772 7.317 13.237 6.984L13.384 6.874L13.348 6.709C13.1564 5.91815 12.7921 5.17953 12.2812 4.5462C11.7703 3.91286 11.1254 3.40153 10.393 3.047Z" fill="currentColor"/>
  </g>
</svg>