<?xml version="1.0" encoding="UTF-8"?>
<svg width="16" height="16" viewBox="0 0 16 16" xmlns="http://www.w3.org/2000/svg">
  <g id="external-link">
    <path fill-rule="evenodd" clip-rule="evenodd" d="M9.157 3L7.657 4.5H6C5.88297 4.49996 5.76964 4.54097 5.67974 4.61589C5.58984 4.69081 5.52906 4.79489 5.508 4.91L5.5 5V10C5.49996 10.117 5.54097 10.2304 5.61589 10.3203C5.69081 10.4102 5.79489 10.4709 5.91 10.492L6 10.5H11C11.117 10.5 11.2304 10.459 11.3203 10.3841C11.4102 10.3092 11.4709 10.2051 11.492 10.09L11.5 10V8.538L13 7.038V10C13 10.5304 12.7893 11.0391 12.4142 11.4142C12.0391 11.7893 11.5304 12 11 12H6C5.46957 12 4.96086 11.7893 4.58579 11.4142C4.21071 11.0391 4 10.5304 4 10V5C4 4.46957 4.21071 3.96086 4.58579 3.58579C4.96086 3.21071 5.46957 3 6 3H9.157ZM14.75 1.25V6H13.25V3.81L8.5 8.56L7.44 7.5L12.188 2.75H10V1.25H14.75Z" fill="currentColor"/>
  </g>
</svg>