<?xml version="1.0" encoding="UTF-8"?>
<svg width="16" height="16" viewBox="0 0 16 16" xmlns="http://www.w3.org/2000/svg">
  <g id="file">
    <path fill-rule="evenodd" clip-rule="evenodd" d="M6.99194 2.5H4.5V13.5H11.5V7.00806H9.24194C7.9993 7.00806 6.99194 6.0007 6.99194 4.75806V2.5ZM10.8869 5.50806L8.49194 3.1127V4.75806C8.49194 5.17227 8.82773 5.50806 9.24194 5.50806H10.8869ZM3 2.5C3 1.67157 3.67157 1 4.5 1H8.08647C8.35172 1 8.60609 1.10538 8.79364 1.29295L12.7072 5.20712C12.8947 5.39465 13 5.64898 13 5.91417V13.5C13 14.3284 12.3284 15 11.5 15H4.5C3.67157 15 3 14.3284 3 13.5V2.5ZM5.65837 8.48389H10.4917V9.98389H5.65837V8.48389ZM5.65837 10.7339V12.2339H10.4917V10.7339H5.65837Z" fill="currentColor"/>
  </g>
</svg>