<?xml version="1.0" encoding="UTF-8"?>
<svg width="16" height="16" viewBox="0 0 16 16" xmlns="http://www.w3.org/2000/svg">
  <g id="folder">
    <path fill-rule="evenodd" clip-rule="evenodd" d="M6 5.46408V3.60693H2.5V8.66667L2.94235 7.09388C3.12429 6.44696 3.7143 6 4.38632 6H11.5V5.46408H6ZM13 6H14.0216C15.0862 6 15.812 7.07821 15.4113 8.06457L13.38 13.0646C13.1503 13.6301 12.6007 14 11.9903 14H2.98007C2.97153 14 2.963 13.9999 2.9545 13.9998H2.5C1.67157 13.9998 1 13.3282 1 12.4998V3.60693C1 2.77851 1.67157 2.10693 2.5 2.10693H6C6.82843 2.10693 7.5 2.77851 7.5 3.60693V3.96408H11.5C12.3284 3.96408 13 4.63565 13 5.46408V6ZM4.38632 7.5H14.0216L11.9903 12.5H2.98007L4.38632 7.5Z" fill="currentColor"/>
  </g>
</svg>