<?xml version="1.0" encoding="UTF-8"?>
<svg width="16" height="16" viewBox="0 0 16 16" xmlns="http://www.w3.org/2000/svg">
  <g id="fork">
    <path d="M12.576 0.363L15.117 2.903L14.057 3.964L13.247 3.154V4.2C13.247 5.02921 13.0105 5.84123 12.5652 6.54072C12.1199 7.24021 11.4843 7.79814 10.733 8.149L10.531 8.237C10.1217 8.40354 9.75668 8.66269 9.46449 8.99409C9.1723 9.3255 8.96092 9.72013 8.84696 10.147C9.40771 10.3493 9.87773 10.7453 10.1722 11.2636C10.4668 11.7818 10.5664 12.3883 10.4531 12.9736C10.3399 13.5588 10.0212 14.0844 9.55467 14.4554C9.08809 14.8264 8.50428 15.0185 7.90855 14.9971C7.31282 14.9756 6.74437 14.7419 6.30573 14.3382C5.86709 13.9346 5.58713 13.3874 5.51634 12.7955C5.44556 12.2036 5.58861 11.6059 5.91969 11.1102C6.25077 10.6145 6.74809 10.2534 7.32196 10.092C7.44834 9.40952 7.73586 8.76709 8.16061 8.21815C8.58536 7.66921 9.13506 7.22964 9.76396 6.936L9.96596 6.848C10.4622 6.64624 10.8917 6.3091 11.2055 5.87503C11.5193 5.44096 11.7049 4.92743 11.741 4.393L11.747 4.2V3.312L11.097 3.963L10.036 2.903L11.746 1.191L11.747 1.128L11.81 1.127L12.576 0.362V0.363ZM7.99996 11.5C7.73474 11.5 7.48039 11.6054 7.29285 11.7929C7.10532 11.9804 6.99996 12.2348 6.99996 12.5C6.99996 12.7652 7.10532 13.0196 7.29285 13.2071C7.48039 13.3946 7.73474 13.5 7.99996 13.5C8.26518 13.5 8.51953 13.3946 8.70707 13.2071C8.8946 13.0196 8.99996 12.7652 8.99996 12.5C8.99996 12.2348 8.8946 11.9804 8.70707 11.7929C8.51953 11.6054 8.26518 11.5 7.99996 11.5ZM3.99996 0.363L6.53996 2.903L5.47996 3.964L4.74996 3.234V4.2L4.75596 4.393C4.79 4.8948 4.95587 5.37874 5.2368 5.79592C5.51773 6.21311 5.90378 6.54877 6.35596 6.769L6.73296 6.936C6.81596 6.975 6.89796 7.016 6.97696 7.059L6.17396 8.331L6.07096 8.282L5.76396 8.149C5.04675 7.81397 4.43435 7.28993 3.99249 6.63313C3.55063 5.97633 3.296 5.21158 3.25596 4.421L3.24996 4.201V3.233L2.51996 3.963L1.45996 2.903L3.99996 0.363Z" fill="currentColor"/>
  </g>
</svg>