<?xml version="1.0" encoding="UTF-8"?>
<svg width="16" height="16" viewBox="0 0 16 16" xmlns="http://www.w3.org/2000/svg">
  <g id="fullscreen">
    <path fill-rule="evenodd" clip-rule="evenodd" d="M15 10V12C15 12.7956 14.6839 13.5587 14.1213 14.1213C13.5587 14.6839 12.7956 15 12 15H10V13.5H12C12.3729 13.5 12.7324 13.3611 13.0084 13.1104C13.2844 12.8597 13.4572 12.5152 13.493 12.144L13.5 12V10H15ZM2.5 10V12C2.50002 12.3729 2.63892 12.7324 2.88962 13.0084C3.14032 13.2844 3.48484 13.4572 3.856 13.493L4 13.5H6V15H4C3.20435 15 2.44129 14.6839 1.87868 14.1213C1.31607 13.5587 1 12.7956 1 12V10H2.5ZM6 1V2.5H4L3.856 2.507C3.50938 2.54021 3.1851 2.69298 2.93879 2.93911C2.69248 3.18524 2.53947 3.5094 2.506 3.856L2.5 4V6H1V4C0.999957 3.23479 1.29233 2.49849 1.81728 1.94174C2.34224 1.38499 3.06011 1.04989 3.824 1.005L4 1H6ZM12 1C12.7652 0.999957 13.5015 1.29233 14.0583 1.81728C14.615 2.34224 14.9501 3.06011 14.995 3.824L15 4V6H13.5V4L13.493 3.856C13.4598 3.50938 13.307 3.1851 13.0609 2.93879C12.8148 2.69248 12.4906 2.53947 12.144 2.506L12 2.5H10V1H12Z" fill="currentColor"/>
  </g>
</svg>