<?xml version="1.0" encoding="UTF-8"?>
<svg width="16" height="16" viewBox="0 0 16 16" xmlns="http://www.w3.org/2000/svg">
  <g id="gift">
    <path fill-rule="evenodd" clip-rule="evenodd" d="M10.287 1.37574C11.4081 0.967677 12.6478 1.54575 13.0559 2.66691C13.1395 2.89667 13.1824 3.13926 13.1827 3.38377C13.183 3.60901 13.1478 3.82603 13.0825 4.02955L13.5 4.0295C14.3284 4.0295 15 4.70107 15 5.5295V6.49995C15 7.1528 14.5829 7.70823 14.0007 7.91435L14 13.5C14 14.3284 13.3284 15 12.5 15H3.5C2.67157 15 2 14.3284 2 13.5L2.00029 7.9147C1.41754 7.70887 1 7.15317 1 6.49995V5.5295C1 4.70107 1.67157 4.0295 2.5 4.0295L2.96152 4.02955C2.89621 3.82603 2.86106 3.60901 2.86133 3.38377C2.86163 3.13926 2.90455 2.89667 2.98818 2.66691C3.39625 1.54575 4.63593 0.967677 5.75709 1.37574C5.97587 1.45537 6.18034 1.56984 6.36258 1.71472L8.022 3.03287L9.68147 1.71472C9.81816 1.60606 9.96734 1.51451 10.1257 1.44193L10.287 1.37574ZM7.25 7.99987H3.5V13.5L7.25 13.4999V7.99987ZM8.75 7.99987H12.5V13.5L8.75 13.4999V7.99987ZM7.25 5.61187L3.5 5.6127V6.49987H7.25V5.61187ZM8.75 5.61187L12.5 5.6127V6.49987H8.75V5.61187ZM11.6463 3.17994C11.5216 2.83725 11.1427 2.66055 10.8 2.78528C10.7554 2.80151 10.7128 2.82247 10.6728 2.84776L10.6149 2.8889L9.227 3.99187L11.0801 3.98957L11.178 3.98156C11.4646 3.93446 11.6831 3.68543 11.6827 3.38556C11.6826 3.31543 11.6703 3.24585 11.6463 3.17994ZM4.36133 3.38556C4.36142 3.31543 4.37373 3.24585 4.39772 3.17994C4.52245 2.83725 4.90137 2.66055 5.24406 2.78528C5.31093 2.80962 5.37343 2.84461 5.42914 2.8889L6.81859 3.99167L4.96391 3.98957L4.86606 3.98156C4.57946 3.93446 4.36097 3.68543 4.36133 3.38556Z" fill="currentColor"/>
  </g>
</svg>