<?xml version="1.0" encoding="UTF-8"?>
<svg width="16" height="16" viewBox="0 0 16 16" xmlns="http://www.w3.org/2000/svg">
  <g id="help">
    <path d="M8 1C9.85652 1 11.637 1.7375 12.9497 3.05025C14.2625 4.36301 15 6.14348 15 8C15 9.85652 14.2625 11.637 12.9497 12.9497C11.637 14.2625 9.85652 15 8 15C6.14348 15 4.36301 14.2625 3.05025 12.9497C1.7375 11.637 1 9.85652 1 8C1 6.14348 1.7375 4.36301 3.05025 3.05025C4.36301 1.7375 6.14348 1 8 1ZM8 2.5C6.54131 2.5 5.14236 3.07946 4.11091 4.11091C3.07946 5.14236 2.5 6.54131 2.5 8C2.5 9.45869 3.07946 10.8576 4.11091 11.8891C5.14236 12.9205 6.54131 13.5 8 13.5C9.45869 13.5 10.8576 12.9205 11.8891 11.8891C12.9205 10.8576 13.5 9.45869 13.5 8C13.5 6.54131 12.9205 5.14236 11.8891 4.11091C10.8576 3.07946 9.45869 2.5 8 2.5ZM8.5 10C8.63261 10 8.75979 10.0527 8.85355 10.1464C8.94732 10.2402 9 10.3674 9 10.5V11.5C9 11.6326 8.94732 11.7598 8.85355 11.8536C8.75979 11.9473 8.63261 12 8.5 12H7.5C7.36739 12 7.24021 11.9473 7.14645 11.8536C7.05268 11.7598 7 11.6326 7 11.5V10.5C7 10.3674 7.05268 10.2402 7.14645 10.1464C7.24021 10.0527 7.36739 10 7.5 10H8.5ZM8.17 3.846C8.618 3.846 8.988 3.906 9.28 4.026C9.57 4.145 9.8 4.296 9.968 4.478C10.137 4.66 10.254 4.86 10.321 5.078C10.387 5.295 10.421 5.502 10.421 5.698C10.421 5.894 10.391 6.075 10.331 6.24C10.271 6.405 10.196 6.557 10.105 6.697C10.014 6.837 9.909 6.971 9.79 7.097L9.613 7.281L9.179 7.723C9.08899 7.81642 9.0064 7.91673 8.932 8.023C8.85925 8.12659 8.79758 8.23753 8.748 8.354C8.71609 8.42878 8.69423 8.50747 8.683 8.588L8.674 8.707V8.833L8.677 8.912L8.685 8.98H7.296L7.279 8.868L7.27 8.744L7.265 8.517C7.265 8.321 7.289 8.144 7.338 7.987C7.388 7.828 7.452 7.681 7.533 7.544C7.613 7.407 7.707 7.28 7.812 7.16L7.972 6.984L8.138 6.814C8.299 6.652 8.447 6.492 8.58 6.334C8.7103 6.18403 8.78141 5.99167 8.78 5.793C8.78072 5.71117 8.76366 5.63015 8.72999 5.55556C8.69632 5.48097 8.64685 5.41459 8.585 5.361C8.455 5.242 8.265 5.183 8.012 5.183C7.759 5.183 7.521 5.214 7.296 5.277C7.128 5.325 6.946 5.394 6.75 5.484L6.55 5.582L6.108 4.394L6.278 4.294C6.512 4.166 6.778 4.064 7.075 3.989C7.43259 3.89577 7.80046 3.84772 8.17 3.846Z" fill="currentColor"/>
  </g>
</svg>