<?xml version="1.0" encoding="UTF-8"?>
<svg width="16" height="16" viewBox="0 0 16 16" xmlns="http://www.w3.org/2000/svg">
  <g id="hide">
    <path fill-rule="evenodd" clip-rule="evenodd" d="M13.938 0.623993L14.998 1.68399L12.345 4.33699C13.615 5.15999 14.82 6.36299 15.961 7.94699V8.05299L15.768 8.31699C13.44 11.44 10.851 13 8 13C6.79033 12.9992 5.59807 12.7116 4.521 12.161L2.167 14.515L1.107 13.455L13.938 0.623993ZM11.256 5.42599L9.714 6.96899C9.94432 7.35156 10.04 7.80019 9.98575 8.24343C9.93152 8.68667 9.73052 9.09901 9.41477 9.41476C9.09902 9.73051 8.68667 9.93152 8.24344 9.98575C7.8002 10.04 7.35156 9.94431 6.969 9.71399L5.653 11.03C6.3194 11.3076 7.0297 11.4651 7.751 11.495L8 11.5C10.076 11.5 12.03 10.458 13.893 8.26699L14.115 7.99899L13.893 7.73299C13.035 6.72299 12.157 5.95799 11.256 5.42599ZM8 2.99999C8.608 2.99999 9.203 3.06999 9.787 3.21299L8.482 4.51899C8.40443 4.51283 8.32675 4.50817 8.249 4.50499L8 4.49999C5.924 4.49999 3.97 5.54199 2.107 7.73299L1.884 7.99999L2.107 8.26699C2.535 8.76999 2.967 9.21299 3.407 9.59699L2.345 10.658C1.535 9.93799 0.754 9.05199 0 7.99999C2.388 4.66699 5.054 2.99999 8 2.99999Z" fill="currentColor"/>
  </g>
</svg>