<?xml version="1.0" encoding="UTF-8"?>
<svg width="16" height="16" viewBox="0 0 16 16" xmlns="http://www.w3.org/2000/svg">
  <g id="highlight-off">
    <path d="M8 1C9.0495 0.99979 10.0725 1.32983 10.9239 1.94335C11.7754 2.55687 12.4123 3.42278 12.7443 4.41839C13.0762 5.41399 13.0865 6.48882 12.7736 7.4906C12.4608 8.49237 11.8406 9.3703 11.001 10L11 12C11 12.7956 10.6839 13.5587 10.1213 14.1213C9.55871 14.6839 8.79565 15 8 15C7.20435 15 6.44129 14.6839 5.87868 14.1213C5.31607 13.5587 5 12.7956 5 12V10C4.16047 9.37035 3.54033 8.49252 3.22743 7.49084C2.91453 6.48916 2.92473 5.41442 3.25658 4.41886C3.58844 3.4233 4.22512 2.55739 5.07645 1.94379C5.92778 1.33019 6.95059 1 8 1ZM9.37 12.611H6.63C6.74803 12.8757 6.94024 13.1006 7.18337 13.2584C7.4265 13.4162 7.71015 13.5002 8 13.5002C8.28985 13.5002 8.5735 13.4162 8.81663 13.2584C9.05976 13.1006 9.25197 12.8757 9.37 12.611ZM8 2.5C7.26541 2.5 6.54944 2.73113 5.95351 3.16065C5.35758 3.59017 4.91191 4.19631 4.67961 4.8932C4.44731 5.5901 4.44017 6.34241 4.6592 7.04359C4.87823 7.74476 5.31233 8.35925 5.9 8.8C6.06523 8.92389 6.2031 9.08057 6.30496 9.26021C6.40683 9.43986 6.47051 9.6386 6.492 9.844L6.5 10V11.11H9.5L9.501 9.999C9.50104 9.76639 9.55518 9.53697 9.65914 9.32888C9.76309 9.12078 9.91403 8.93972 10.1 8.8C10.6877 8.35925 11.1218 7.74476 11.3408 7.04359C11.5598 6.34241 11.5527 5.5901 11.3204 4.8932C11.0881 4.19631 10.6424 3.59017 10.0465 3.16065C9.45056 2.73113 8.73459 2.5 8 2.5ZM6.391 6.43L8 7.265L9.623 6.438L10.304 7.775L7.994 8.952L5.702 7.763L6.392 6.432L6.391 6.43Z" fill="currentColor"/>
  </g>
</svg>