<?xml version="1.0" encoding="UTF-8"?>
<svg width="16" height="16" viewBox="0 0 16 16" xmlns="http://www.w3.org/2000/svg">
  <g id="highlight-on">
    <path fill-rule="evenodd" clip-rule="evenodd" d="M10.956 12.515C10.8354 13.2115 10.4727 13.8431 9.93189 14.2983C9.39108 14.7535 8.70691 15.0031 8.00002 15.0031C7.29314 15.0031 6.60896 14.7535 6.06815 14.2983C5.52735 13.8431 5.16465 13.2115 5.04402 12.515H10.956ZM8.00002 1C9.04952 0.99979 10.0725 1.32983 10.924 1.94335C11.7755 2.55687 12.4123 3.42278 12.7443 4.41839C13.0763 5.41399 13.0865 6.48882 12.7737 7.4906C12.4608 8.49237 11.8406 9.3703 11.001 10L11 11H4.99902V10C4.15949 9.37035 3.53936 8.49252 3.22646 7.49084C2.91355 6.48916 2.92375 5.41442 3.25561 4.41886C3.58746 3.4233 4.22414 2.55739 5.07547 1.94379C5.9268 1.33019 6.95061 1 8.00002 1ZM6.38802 6.427L5.69802 7.759L7.99402 8.949L10.307 7.769L9.62602 6.433L7.99902 7.262L6.38802 6.427Z" fill="currentColor"/>
  </g>
</svg>