<?xml version="1.0" encoding="UTF-8"?>
<svg width="16" height="16" viewBox="0 0 16 16" xmlns="http://www.w3.org/2000/svg">
  <g id="image">
    <path fill-rule="evenodd" clip-rule="evenodd" d="M13.5 8C13.5 11.0376 11.0376 13.5 8 13.5C4.96243 13.5 2.5 11.0376 2.5 8C2.5 4.96243 4.96243 2.5 8 2.5C11.0376 2.5 13.5 4.96243 13.5 8ZM15 8C15 11.866 11.866 15 8 15C4.13401 15 1 11.866 1 8C1 4.13401 4.13401 1 8 1C11.866 1 15 4.13401 15 8ZM4.75875 8.715C4.70275 8.52367 4.67475 8.309 4.67475 8.071C4.67475 7.83767 4.70275 7.62533 4.75875 7.434C4.81942 7.238 4.90342 7.07233 5.01075 6.937C5.12275 6.797 5.25809 6.68967 5.41675 6.615C5.57542 6.53567 5.75742 6.496 5.96275 6.496C6.16342 6.496 6.34309 6.53333 6.50175 6.608C6.66509 6.68267 6.80042 6.79 6.90775 6.93C7.01975 7.06533 7.10375 7.231 7.15975 7.427C7.22042 7.61833 7.25075 7.833 7.25075 8.071C7.25075 8.309 7.22042 8.52367 7.15975 8.715C7.10375 8.90633 7.01975 9.072 6.90775 9.212C6.80042 9.34733 6.66509 9.45233 6.50175 9.527C6.34309 9.60167 6.16342 9.639 5.96275 9.639C5.75742 9.639 5.57542 9.60167 5.41675 9.527C5.25809 9.45233 5.12275 9.34733 5.01075 9.212C4.90342 9.072 4.81942 8.90633 4.75875 8.715ZM8.18875 9.17C8.31475 8.85267 8.37775 8.48633 8.37775 8.071C8.37775 7.65567 8.31475 7.29167 8.18875 6.979C8.06275 6.66167 7.89009 6.39567 7.67075 6.181C7.45142 5.96633 7.19475 5.80533 6.90075 5.698C6.60675 5.59067 6.29409 5.537 5.96275 5.537C5.64075 5.537 5.33275 5.59067 5.03875 5.698C4.74942 5.80533 4.49275 5.96633 4.26875 6.181C4.04942 6.39567 3.87442 6.66167 3.74375 6.979C3.61309 7.29167 3.54775 7.65567 3.54775 8.071C3.54775 8.48633 3.61075 8.85267 3.73675 9.17C3.86275 9.48267 4.03542 9.74633 4.25475 9.961C4.47409 10.171 4.73075 10.3297 5.02475 10.437C5.31875 10.5443 5.63142 10.598 5.96275 10.598C6.30342 10.598 6.62075 10.5443 6.91475 10.437C7.21342 10.3297 7.47009 10.171 7.68475 9.961C7.89942 9.74633 8.06742 9.48267 8.18875 9.17ZM10.489 9.632C10.391 9.65533 10.265 9.667 10.111 9.667C9.80303 9.667 9.54169 9.63667 9.32703 9.576C9.11703 9.51067 8.93969 9.43833 8.79503 9.359L8.48703 10.227C8.55236 10.2643 8.63169 10.304 8.72503 10.346C8.82303 10.388 8.93736 10.4277 9.06803 10.465C9.20336 10.5023 9.35736 10.5327 9.53003 10.556C9.70269 10.584 9.89636 10.598 10.111 10.598C10.7504 10.598 11.2287 10.4743 11.546 10.227C11.8634 9.975 12.022 9.62267 12.022 9.17C12.022 8.93667 11.9917 8.73833 11.931 8.575C11.8704 8.41167 11.777 8.26933 11.651 8.148C11.5297 8.02667 11.3757 7.92167 11.189 7.833C11.0024 7.73967 10.783 7.64633 10.531 7.553C10.4097 7.511 10.2977 7.47133 10.195 7.434C10.097 7.392 10.0084 7.34767 9.92903 7.301C9.85436 7.24967 9.79603 7.19367 9.75403 7.133C9.71203 7.07233 9.69103 6.99767 9.69103 6.909C9.69103 6.75967 9.74703 6.65 9.85903 6.58C9.97569 6.50533 10.1647 6.468 10.426 6.468C10.6594 6.468 10.8577 6.496 11.021 6.552C11.189 6.60333 11.3407 6.664 11.476 6.734L11.791 5.873C11.637 5.789 11.441 5.712 11.203 5.642C10.965 5.572 10.6827 5.537 10.356 5.537C10.0807 5.537 9.83336 5.572 9.61403 5.642C9.39469 5.70733 9.20803 5.803 9.05403 5.929C8.90003 6.055 8.78103 6.209 8.69703 6.391C8.61303 6.56833 8.57103 6.769 8.57103 6.993C8.57103 7.217 8.61069 7.40833 8.69003 7.567C8.76936 7.721 8.87203 7.854 8.99803 7.966C9.12403 8.07333 9.26636 8.16433 9.42503 8.239C9.58369 8.309 9.74236 8.372 9.90103 8.428C10.265 8.54933 10.5217 8.66367 10.671 8.771C10.8204 8.87367 10.895 9.00433 10.895 9.163C10.895 9.23767 10.8834 9.30533 10.86 9.366C10.8367 9.42667 10.7947 9.48033 10.734 9.527C10.6734 9.569 10.5917 9.604 10.489 9.632Z" fill="currentColor"/>
  </g>
</svg>