<?xml version="1.0" encoding="UTF-8"?>
<svg width="16" height="16" viewBox="0 0 16 16" xmlns="http://www.w3.org/2000/svg">
  <g id="in-progress">
    <path d="M8 1C9.85652 1 11.637 1.7375 12.9497 3.05025C14.2625 4.36301 15 6.14348 15 8C15 9.85652 14.2625 11.637 12.9497 12.9497C11.637 14.2625 9.85652 15 8 15C6.14348 15 4.36301 14.2625 3.05025 12.9497C1.7375 11.637 1 9.85652 1 8C1 6.14348 1.7375 4.36301 3.05025 3.05025C4.36301 1.7375 6.14348 1 8 1ZM8 2.5C6.54131 2.5 5.14236 3.07946 4.11091 4.11091C3.07946 5.14236 2.5 6.54131 2.5 8C2.5 9.45869 3.07946 10.8576 4.11091 11.8891C5.14236 12.9205 6.54131 13.5 8 13.5C9.45869 13.5 10.8576 12.9205 11.8891 11.8891C12.9205 10.8576 13.5 9.45869 13.5 8C13.5 6.54131 12.9205 5.14236 11.8891 4.11091C10.8576 3.07946 9.45869 2.5 8 2.5Z" fill="currentColor"/>
<path fill-rule="evenodd" clip-rule="evenodd" d="M8 1C9.37424 1.00002 10.7181 1.40455 11.864 2.16315C13.0099 2.92175 13.9071 4.00086 14.4439 5.26595C14.9806 6.53104 15.1331 7.92613 14.8824 9.2773C14.6316 10.6285 13.9887 11.8759 13.0337 12.8642C12.0788 13.8524 10.8541 14.5377 9.5123 14.8347C8.17051 15.1316 6.77101 15.027 5.48827 14.5339C4.20553 14.0408 3.09631 13.1811 2.29888 12.0618C1.50146 10.9426 1.05112 9.61344 1.004 8.24L1 8H2.5C2.5 9.0878 2.82257 10.1512 3.42692 11.0556C4.03126 11.9601 4.89025 12.6651 5.89524 13.0813C6.90023 13.4976 8.0061 13.6065 9.073 13.3943C10.1399 13.1821 11.1199 12.6583 11.8891 11.8891C12.6583 11.1199 13.1821 10.1399 13.3943 9.073C13.6065 8.0061 13.4976 6.90023 13.0813 5.89524C12.6651 4.89025 11.9601 4.03126 11.0556 3.42692C10.1512 2.82257 9.0878 2.5 8 2.5V1Z" fill="currentColor"/>
  </g>
</svg>