<?xml version="1.0" encoding="UTF-8"?>
<svg width="16" height="16" viewBox="0 0 16 16" xmlns="http://www.w3.org/2000/svg">
  <g id="information">
    <path d="M8 1C9.85652 1 11.637 1.7375 12.9497 3.05025C14.2625 4.36301 15 6.14348 15 8C15 9.85652 14.2625 11.637 12.9497 12.9497C11.637 14.2625 9.85652 15 8 15C6.14348 15 4.36301 14.2625 3.05025 12.9497C1.7375 11.637 1 9.85652 1 8C1 6.14348 1.7375 4.36301 3.05025 3.05025C4.36301 1.7375 6.14348 1 8 1ZM8 2.5C6.54131 2.5 5.14236 3.07946 4.11091 4.11091C3.07946 5.14236 2.5 6.54131 2.5 8C2.5 9.45869 3.07946 10.8576 4.11091 11.8891C5.14236 12.9205 6.54131 13.5 8 13.5C9.45869 13.5 10.8576 12.9205 11.8891 11.8891C12.9205 10.8576 13.5 9.45869 13.5 8C13.5 6.54131 12.9205 5.14236 11.8891 4.11091C10.8576 3.07946 9.45869 2.5 8 2.5ZM8.75 7V12.02H7.25V7H8.75ZM8.5 3.944C8.63261 3.944 8.75979 3.99668 8.85355 4.09045C8.94732 4.18421 9 4.31139 9 4.444V5.444C9 5.57661 8.94732 5.70379 8.85355 5.79755C8.75979 5.89132 8.63261 5.944 8.5 5.944H7.5C7.36739 5.944 7.24021 5.89132 7.14645 5.79755C7.05268 5.70379 7 5.57661 7 5.444V4.444C7 4.31139 7.05268 4.18421 7.14645 4.09045C7.24021 3.99668 7.36739 3.944 7.5 3.944H8.5Z" fill="currentColor"/>
  </g>
</svg>