<?xml version="1.0" encoding="UTF-8"?>
<svg width="16" height="16" viewBox="0 0 16 16" xmlns="http://www.w3.org/2000/svg">
  <g id="iso">
    <path fill-rule="evenodd" clip-rule="evenodd" d="M12.9204 5.53979C13.2913 6.28006 13.5 7.11566 13.5 8C13.5 11.0376 11.0376 13.5 8 13.5C7.11566 13.5 6.28006 13.2913 5.53979 12.9204L7.10538 9.78925C7.37457 9.9241 7.67842 10 8 10C9.10457 10 10 9.10457 10 8C10 7.67842 9.9241 7.37457 9.78925 7.10538L12.9204 5.53979ZM6.21076 8.89463C6.0759 8.62543 6 8.32158 6 8C6 6.89543 6.89543 6 8 6C8.32158 6 8.62543 6.0759 8.89463 6.21076L10.4602 3.07958C9.71994 2.70872 8.88434 2.5 8 2.5C4.96243 2.5 2.5 4.96243 2.5 8C2.5 8.88434 2.70872 9.71994 3.07958 10.4602L6.21076 8.89463ZM8 1C11.866 1 15 4.13401 15 8C15 11.866 11.866 15 8 15C4.13401 15 1 11.866 1 8C1 4.13401 4.13401 1 8 1ZM8 7.5C8.27614 7.5 8.5 7.72386 8.5 8C8.5 8.27614 8.27614 8.5 8 8.5C7.72386 8.5 7.5 8.27614 7.5 8C7.5 7.72386 7.72386 7.5 8 7.5Z" fill="currentColor"/>
  </g>
</svg>