<?xml version="1.0" encoding="UTF-8"?>
<svg width="16" height="16" viewBox="0 0 16 16" xmlns="http://www.w3.org/2000/svg">
  <g id="loading-steps">
    <path fill-rule="evenodd" clip-rule="evenodd" d="M10.9561 12.639L11.8391 13.854C10.6992 14.6036 9.36432 15.0021 8.00005 15C6.78998 15.0019 5.60027 14.6886 4.54805 14.091L5.43805 12.868C6.22777 13.2844 7.1073 13.5013 8.00005 13.5C9.04747 13.5017 10.0734 13.2029 10.9561 12.639ZM1.11105 6.75L2.55505 7.22C2.4411 8.00586 2.49932 8.80709 2.72569 9.56821C2.95206 10.3293 3.34116 11.0322 3.86605 11.628L2.96605 12.864C2.22904 12.1039 1.67469 11.186 1.34498 10.1799C1.01527 9.17383 0.918864 8.10589 1.06305 7.057L1.11105 6.75ZM15.0001 8C15.0027 9.65618 14.4156 11.2592 13.3441 12.522L12.4291 11.262C13.2711 10.1228 13.6389 8.70163 13.4551 7.297L14.9021 6.827C14.9671 7.21 15.0001 7.6 15.0001 8ZM14.2901 4.923L12.8441 5.393C12.4583 4.67726 11.9188 4.0558 11.2644 3.57325C10.61 3.09069 9.85684 2.75901 9.05905 2.602L9.06005 1.08C10.1771 1.25142 11.2361 1.69042 12.1467 2.35958C13.0574 3.02874 13.7928 3.90822 14.2901 4.923ZM7.06005 1.063L7.05805 2.58C6.25014 2.72068 5.48385 3.04006 4.81516 3.5148C4.14647 3.98954 3.59228 4.60766 3.19305 5.324L1.74405 4.854C2.23524 3.87913 2.9473 3.03245 3.82353 2.3814C4.69975 1.73035 5.71591 1.29294 6.79105 1.104L7.05805 1.063H7.06005Z" fill="currentColor"/>
  </g>
</svg>