<?xml version="1.0" encoding="UTF-8"?>
<svg width="16" height="16" viewBox="0 0 16 16" xmlns="http://www.w3.org/2000/svg">
  <g id="lock-locked-active">
    <path d="M8 1C9.06087 1 10.0783 1.42143 10.8284 2.17157C11.5786 2.92172 12 3.93913 12 5V6H12.5C12.8978 6 13.2794 6.15804 13.5607 6.43934C13.842 6.72064 14 7.10218 14 7.5V14.5C14 14.8978 13.842 15.2794 13.5607 15.5607C13.2794 15.842 12.8978 16 12.5 16H3.5C3.10218 16 2.72064 15.842 2.43934 15.5607C2.15804 15.2794 2 14.8978 2 14.5V7.5C2 7.10218 2.15804 6.72064 2.43934 6.43934C2.72064 6.15804 3.10218 6 3.5 6H4V5C4 3.93913 4.42143 2.92172 5.17157 2.17157C5.92172 1.42143 6.93913 1 8 1ZM8 8.333C7.6031 8.33354 7.21817 8.46899 6.90839 8.71711C6.5986 8.96523 6.38237 9.31129 6.29516 9.69849C6.20795 10.0857 6.25496 10.491 6.42846 10.848C6.60196 11.205 6.89166 11.4924 7.25 11.663V13.667H8.75L8.751 11.662C9.10885 11.491 9.39801 11.2035 9.57109 10.8467C9.74417 10.4898 9.79089 10.0848 9.70361 9.69789C9.61634 9.311 9.40023 8.96524 9.09071 8.71726C8.78118 8.46928 8.39661 8.33379 8 8.333ZM8 2.5C7.36528 2.4999 6.75429 2.74123 6.29095 3.17504C5.82762 3.60885 5.54664 4.20265 5.505 4.836L5.5 5V6H10.5V5C10.5 4.33696 10.2366 3.70107 9.76777 3.23223C9.29893 2.76339 8.66304 2.5 8 2.5Z" fill="currentColor"/>
  </g>
</svg>