<?xml version="1.0" encoding="UTF-8"?>
<svg width="16" height="16" viewBox="0 0 16 16" xmlns="http://www.w3.org/2000/svg">
  <g id="machines">
    <path d="M12 0.990005C12.7957 0.990005 13.5587 1.30608 14.1213 1.86869C14.6839 2.43129 15 3.19436 15 3.99001V5.74001C15 6.67801 14.569 7.51601 13.894 8.06601C14.2401 8.34674 14.519 8.70131 14.7104 9.10377C14.9018 9.50622 15.0007 9.94637 15 10.392V12.142C15 12.9377 14.6839 13.7007 14.1213 14.2633C13.5587 14.8259 12.7957 15.142 12 15.142H4C3.20435 15.142 2.44129 14.8259 1.87868 14.2633C1.31607 13.7007 1 12.9377 1 12.142V10.392C1 9.45201 1.431 8.61501 2.106 8.06501C1.75992 7.78427 1.48099 7.4297 1.28962 7.02724C1.09826 6.62479 0.999303 6.18464 1 5.73901V3.99001C1 3.19436 1.31607 2.43129 1.87868 1.86869C2.44129 1.30608 3.20435 0.990005 4 0.990005H12ZM12 8.89201H4C3.62728 8.892 3.2679 9.03076 2.9919 9.28125C2.71589 9.53175 2.54303 9.87603 2.507 10.247L2.5 10.392V12.142C2.50002 12.5149 2.63892 12.8744 2.88962 13.1504C3.14032 13.4265 3.48484 13.5992 3.856 13.635L4 13.642H12C12.3729 13.642 12.7324 13.5031 13.0084 13.2524C13.2845 13.0017 13.4572 12.6572 13.493 12.286L13.5 12.142V10.392C13.5002 10.019 13.3614 9.6592 13.1107 9.38296C12.86 9.10672 12.5153 8.93382 12.144 8.89801L12 8.89201ZM11.5 10C11.6326 10 11.7598 10.0527 11.8536 10.1465C11.9473 10.2402 12 10.3674 12 10.5V11.5C12 11.6326 11.9473 11.7598 11.8536 11.8536C11.7598 11.9473 11.6326 12 11.5 12H10.5C10.3674 12 10.2402 11.9473 10.1465 11.8536C10.0527 11.7598 10 11.6326 10 11.5V10.5C10 10.3674 10.0527 10.2402 10.1465 10.1465C10.2402 10.0527 10.3674 10 10.5 10H11.5ZM12 2.49001H4C3.62728 2.49 3.2679 2.62876 2.9919 2.87925C2.71589 3.12975 2.54303 3.47403 2.507 3.84501L2.5 3.98901V5.73901C2.50002 6.11189 2.63892 6.4714 2.88962 6.74742C3.14032 7.02345 3.48484 7.19621 3.856 7.23201L4 7.24001H12C12.3727 7.24001 12.7321 7.10125 13.0081 6.85076C13.2841 6.60026 13.457 6.25599 13.493 5.88501L13.5 5.74001V3.99001C13.5 3.61712 13.3611 3.25761 13.1104 2.98159C12.8597 2.70556 12.5152 2.5328 12.144 2.49701L12 2.49001ZM11.5 4.00001C11.6326 4.00001 11.7598 4.05268 11.8536 4.14645C11.9473 4.24022 12 4.3674 12 4.50001V5.50001C12 5.63261 11.9473 5.75979 11.8536 5.85356C11.7598 5.94733 11.6326 6.00001 11.5 6.00001H10.5C10.3674 6.00001 10.2402 5.94733 10.1465 5.85356C10.0527 5.75979 10 5.63261 10 5.50001V4.50001C10 4.3674 10.0527 4.24022 10.1465 4.14645C10.2402 4.05268 10.3674 4.00001 10.5 4.00001H11.5Z" fill="currentColor"/>
  </g>
</svg>