<?xml version="1.0" encoding="UTF-8"?>
<svg width="16" height="16" viewBox="0 0 16 16" xmlns="http://www.w3.org/2000/svg">
  <g id="minimize-bar">
    <path fill-rule="evenodd" clip-rule="evenodd" d="M15 12V14C15 14.2652 14.8946 14.5196 14.7071 14.7071C14.5196 14.8946 14.2652 15 14 15H2C1.73478 15 1.48043 14.8946 1.29289 14.7071C1.10536 14.5196 1 14.2652 1 14V12H15ZM12 1C12.7652 0.999957 13.5015 1.29233 14.0583 1.81728C14.615 2.34224 14.9501 3.06011 14.995 3.824L15 4V10H13.5V4L13.493 3.856C13.4598 3.50938 13.307 3.1851 13.0609 2.93879C12.8148 2.69248 12.4906 2.53947 12.144 2.506L12 2.5H4L3.856 2.507C3.50938 2.54021 3.1851 2.69298 2.93879 2.93911C2.69248 3.18524 2.53947 3.5094 2.506 3.856L2.5 4V10H1V4C0.999957 3.23479 1.29233 2.49849 1.81728 1.94174C2.34224 1.38499 3.06011 1.04989 3.824 1.005L4 1H12Z" fill="currentColor"/>
  </g>
</svg>