<?xml version="1.0" encoding="UTF-8"?>
<svg width="16" height="16" viewBox="0 0 16 16" xmlns="http://www.w3.org/2000/svg">
  <g id="models">
    <path d="M12 1C12.4459 1.00031 12.886 1.09998 13.2885 1.29177C13.691 1.48356 14.0457 1.76264 14.3267 2.10872C14.6078 2.4548 14.8082 2.85918 14.9133 3.29244C15.0185 3.7257 15.0258 4.17695 14.9346 4.61337C14.8435 5.04979 14.6562 5.46041 14.3864 5.81536C14.1166 6.17031 13.7711 6.46066 13.375 6.6653C12.9789 6.86995 12.5422 6.98373 12.0966 6.99838C11.651 7.01303 11.2077 6.92818 10.799 6.75C10.4869 7.44115 10.0632 8.07628 9.54503 8.63C9.45503 8.729 9.36003 8.826 9.26203 8.921C8.46603 9.696 7.57802 10.231 6.60803 10.519C6.72003 10.713 6.81003 10.922 6.87503 11.141H9.12503C9.33222 10.4516 9.78033 9.85964 10.3876 9.4731C10.9949 9.08657 11.7209 8.9312 12.4332 9.03535C13.1455 9.13949 13.7966 9.49621 14.2678 10.0404C14.739 10.5847 14.9989 11.2801 15 12C15.0006 12.7401 14.7275 13.4544 14.2333 14.0054C13.7391 14.5564 13.0587 14.9052 12.3229 14.9849C11.587 15.0645 10.8477 14.8693 10.2471 14.4369C9.64642 14.0044 9.22685 13.3651 9.06903 12.642H6.93003C6.7975 13.2469 6.48113 13.7959 6.02428 14.2139C5.56744 14.6318 4.99248 14.8983 4.37826 14.9766C3.76404 15.055 3.14062 14.9414 2.59348 14.6515C2.04634 14.3616 1.60228 13.9095 1.32217 13.3573C1.04207 12.8051 0.939638 12.1797 1.02893 11.567C1.11821 10.9543 1.39485 10.3841 1.8209 9.93483C2.24695 9.48551 2.80156 9.17898 3.40868 9.05727C4.0158 8.93556 4.6457 9.00463 5.21203 9.255C6.33903 9.172 7.33103 8.707 8.21503 7.846C8.29203 7.771 8.36703 7.693 8.43903 7.615C8.86994 7.15197 9.21559 6.61639 9.46003 6.033L9.53603 5.838L9.56603 5.75C9.34783 5.44958 9.18836 5.11064 9.09603 4.751H6.90603C6.72286 5.45766 6.28839 6.07333 5.68398 6.48271C5.07956 6.8921 4.34665 7.06714 3.62247 6.97506C2.89829 6.88297 2.23251 6.53007 1.74978 5.98245C1.26706 5.43482 1.00051 4.73001 1.00003 4C0.999778 3.26964 1.26597 2.56428 1.74869 2.01619C2.23141 1.46809 2.89749 1.11492 3.62203 1.02289C4.34657 0.93087 5.07979 1.10632 5.6842 1.51633C6.28861 1.92635 6.72268 2.54277 6.90503 3.25H9.09503C9.26146 2.60608 9.63709 2.03568 10.1629 1.62842C10.6887 1.22116 11.3349 1.00012 12 1ZM4.00003 10.5C3.64167 10.5001 3.29519 10.6285 3.02331 10.862C2.75143 11.0954 2.5721 11.4185 2.5178 11.7727C2.4635 12.1269 2.5378 12.4889 2.72727 12.7931C2.91673 13.0972 3.20883 13.3235 3.5507 13.431C3.89256 13.5384 4.2616 13.5199 4.59102 13.3789C4.92044 13.2378 5.18846 12.9834 5.34657 12.6618C5.50469 12.3403 5.54245 11.9727 5.45302 11.6257C5.36359 11.2786 5.15288 10.9751 4.85903 10.77L4.82903 10.771L4.83103 10.751C4.585 10.5869 4.29577 10.4995 4.00003 10.5ZM12 10.5C11.6022 10.5 11.2207 10.658 10.9394 10.9393C10.6581 11.2206 10.5 11.6022 10.5 12C10.5 12.3978 10.6581 12.7794 10.9394 13.0607C11.2207 13.342 11.6022 13.5 12 13.5C12.3979 13.5 12.7794 13.342 13.0607 13.0607C13.342 12.7794 13.5 12.3978 13.5 12C13.5 11.6022 13.342 11.2206 13.0607 10.9393C12.7794 10.658 12.3979 10.5 12 10.5ZM4.00003 2.5C3.6022 2.5 3.22067 2.65804 2.93937 2.93934C2.65806 3.22065 2.50003 3.60218 2.50003 4C2.50003 4.39783 2.65806 4.77936 2.93937 5.06066C3.22067 5.34197 3.6022 5.5 4.00003 5.5C4.39785 5.5 4.77938 5.34197 5.06069 5.06066C5.34199 4.77936 5.50003 4.39783 5.50003 4C5.50003 3.60218 5.34199 3.22065 5.06069 2.93934C4.77938 2.65804 4.39785 2.5 4.00003 2.5ZM12 2.5C11.6022 2.5 11.2207 2.65804 10.9394 2.93934C10.6581 3.22065 10.5 3.60218 10.5 4C10.5 4.39783 10.6581 4.77936 10.9394 5.06066C11.2207 5.34197 11.6022 5.5 12 5.5C12.3979 5.5 12.7794 5.34197 13.0607 5.06066C13.342 4.77936 13.5 4.39783 13.5 4C13.5 3.60218 13.342 3.22065 13.0607 2.93934C12.7794 2.65804 12.3979 2.5 12 2.5Z" fill="currentColor"/>
  </g>
</svg>