<?xml version="1.0" encoding="UTF-8"?>
<svg width="16" height="16" viewBox="0 0 16 16"  xmlns="http://www.w3.org/2000/svg">
  <g id="mount-2" clip-path="url(#clip0_3017_77)">
<path d="M12 8.00001C12.7956 8.00001 13.5587 8.31608 14.1213 8.87869C14.6839 9.4413 15 10.2044 15 11V13C15 13.7957 14.6839 14.5587 14.1213 15.1213C13.5587 15.6839 12.7956 16 12 16H4C3.20435 16 2.44129 15.6839 1.87868 15.1213C1.31607 14.5587 1 13.7957 1 13V11C1 10.2044 1.31607 9.4413 1.87868 8.87869C2.44129 8.31608 3.20435 8.00001 4 8.00001H12ZM12 9.50001H4C3.62712 9.50003 3.26761 9.63893 2.99158 9.88963C2.71555 10.1403 2.5428 10.4848 2.507 10.856L2.5 11V13C2.50002 13.3729 2.63892 13.7324 2.88962 14.0084C3.14032 14.2845 3.48484 14.4572 3.856 14.493L4 14.5H12C12.3729 14.5 12.7324 14.3611 13.0084 14.1104C13.2844 13.8597 13.4572 13.5152 13.493 13.144L13.5 13V11C13.5 10.6271 13.3611 10.2676 13.1104 9.99159C12.8597 9.71556 12.5152 9.5428 12.144 9.50701L12 9.50001ZM11.5 11C11.6326 11 11.7598 11.0527 11.8536 11.1465C11.9473 11.2402 12 11.3674 12 11.5V12.5C12 12.6326 11.9473 12.7598 11.8536 12.8536C11.7598 12.9473 11.6326 13 11.5 13H10.5C10.3674 13 10.2402 12.9473 10.1464 12.8536C10.0527 12.7598 10 12.6326 10 12.5V11.5C10 11.3674 10.0527 11.2402 10.1464 11.1465C10.2402 11.0527 10.3674 11 10.5 11H11.5ZM12.777 -0.526993V4.42001L14.113 3.08601L14.997 3.97001L12.027 6.94001L9.057 3.97001L9.941 3.08601L11.277 4.42001V-0.526993H12.777Z" fill="currentColor"/>
</g>
<defs>
<clipPath id="clip0_3017_77">
<rect width="16" height="16" fill="currentColor"/>
</clipPath>
</defs>
</svg>