<?xml version="1.0" encoding="UTF-8"?>
<svg width="16" height="16" viewBox="0 0 16 16" xmlns="http://www.w3.org/2000/svg">
  <g id="notifications">
    <path fill-rule="evenodd" clip-rule="evenodd" d="M13 6C13 3.23858 10.7614 1 8 1C5.23858 1 3 3.23858 3 6V9.459L1.60814 10.7636C1.22015 11.1271 1 11.635 1 12.1667C1 12.6269 1.3731 13 1.83333 13H5.557L5.56296 13.1686C5.64564 14.4426 6.70514 15.4503 8 15.4503C9.34881 15.4503 10.4422 14.3569 10.4422 13H14.1667C14.6269 13 15 12.6269 15 12.1667C15 11.635 14.7798 11.1271 14.3917 10.7637L13 9.461V6ZM4.50518 5.80796C4.60487 3.96428 6.13144 2.5 8 2.5C9.933 2.5 11.5 4.067 11.5 6V10.1115L12.983 11.5H3.015L4.5 10.1089V6L4.50518 5.80796Z" fill="currentColor"/>
  </g>
</svg>