<?xml version="1.0" encoding="UTF-8"?>
<svg width="16" height="16" viewBox="0 0 16 16" xmlns="http://www.w3.org/2000/svg">
  <g id="open-terminal">
    <path fill-rule="evenodd" clip-rule="evenodd" d="M13 2C13.5304 2 14.0391 2.21071 14.4142 2.58579C14.7893 2.96086 15 3.46957 15 4V12C15 12.5304 14.7893 13.0391 14.4142 13.4142C14.0391 13.7893 13.5304 14 13 14H3C2.46957 14 1.96086 13.7893 1.58579 13.4142C1.21071 13.0391 1 12.5304 1 12V4C1 3.46957 1.21071 2.96086 1.58579 2.58579C1.96086 2.21071 2.46957 2 3 2H13ZM3.823 3.934L2.763 4.994L5.768 8L2.763 11.005L3.823 12.065L7.89 8L3.823 3.934ZM12.75 10.25H7.955V11.75H12.75V10.25Z" fill="currentColor"/>
  </g>
</svg>