<?xml version="1.0" encoding="UTF-8"?>
<svg width="16" height="16" viewBox="0 0 16 16" xmlns="http://www.w3.org/2000/svg">
  <g id="pin">
    <path d="M11.5471 0.119003L15.9591 4.531L14.8991 5.591L14.5331 5.226L12.3281 7.43L10.9431 10.028L12.0711 11.157L11.0111 12.217L7.99913 9.206L3.47613 13.73L1.57812 14.646L2.32213 12.764L6.93913 8.146L3.92912 5.136L4.98912 4.076L6.01713 5.103L8.83613 3.851L10.9961 1.69L10.4861 1.18L11.5461 0.119003H11.5471ZM11.9281 2.879L9.89713 4.912C9.79939 5.00941 9.68868 5.09286 9.56812 5.16L9.44512 5.222L7.16012 6.237L9.83813 8.915L11.0051 6.725C11.0516 6.6378 11.1065 6.5554 11.1691 6.479L11.2691 6.369L13.3441 4.293L11.9281 2.879Z" fill="currentColor"/>
  </g>
</svg>