<?xml version="1.0" encoding="UTF-8"?>
<svg width="16" height="16" viewBox="0 0 16 16"  xmlns="http://www.w3.org/2000/svg">
  <g id="plans" clip-path="url(#clip0_3017_82)">
<path d="M7.99986 0.496002L10.0529 2.359L12.8229 2.251L13.1989 4.998L15.3899 6.697L13.9119 9.042L14.4989 11.752L11.8589 12.599L10.5669 15.052L7.99986 14.003L5.43286 15.052L4.14086 12.599L1.50086 11.752L2.08786 9.042L0.609863 6.697L2.79986 4.998L3.17486 2.251L5.94486 2.359L7.99986 0.496002ZM7.99986 2.52L6.49986 3.881L4.47786 3.803L4.20386 5.808L2.60286 7.048L3.68286 8.761L3.25486 10.739L5.18286 11.358L6.12586 13.148L7.99986 12.383L9.87286 13.148L10.8169 11.358L12.7439 10.739L12.3159 8.761L13.3959 7.048L11.7959 5.808L11.5209 3.803L9.49886 3.881L7.99986 2.52ZM9.89886 5.355L11.1059 6.245L7.37886 11.305L4.71886 8.952L5.71286 7.829L7.14386 9.094L9.89886 5.355Z" fill="currentColor"/>
</g>
<defs>
<clipPath id="clip0_3017_82">
<rect width="16" height="16" fill="currentColor"/>
</clipPath>
</defs>
</svg>