<?xml version="1.0" encoding="UTF-8"?>
<svg width="16" height="16" viewBox="0 0 16 16" xmlns="http://www.w3.org/2000/svg">
  <g id="pods">
    <path d="M1.70278 3.958L1.80878 3.86501L1.81978 3.856C1.90853 3.78473 2.00321 3.72117 2.10278 3.666L7.03178 0.938005C7.32809 0.774115 7.66116 0.688141 7.99978 0.688141C8.33839 0.688141 8.67147 0.774115 8.96778 0.938005L13.8968 3.666L14.0438 3.756L14.2118 3.882L14.3318 3.992L14.3938 4.055L14.4658 4.137L14.5558 4.254L14.6638 4.423L14.7438 4.577L14.7938 4.693L14.8518 4.87C14.9018 5.046 14.9278 5.23 14.9278 5.416V10.727C14.9279 11.0842 14.8323 11.4349 14.651 11.7426C14.4697 12.0504 14.2092 12.3039 13.8968 12.477L8.96778 15.204C8.67147 15.3679 8.33839 15.4539 7.99978 15.4539C7.66116 15.4539 7.32809 15.3679 7.03178 15.204L2.10278 12.477C1.79032 12.3039 1.5299 12.0504 1.34859 11.7426C1.16729 11.4349 1.0717 11.0842 1.07178 10.727V5.416C1.07179 5.29289 1.08317 5.17003 1.10578 5.049L1.14778 4.871C1.16545 4.8087 1.18614 4.7473 1.20978 4.687L1.27278 4.543L1.31478 4.46L1.39478 4.325L1.46478 4.225L1.52578 4.147L1.62578 4.034L1.70278 3.958ZM13.4278 6.333L8.96778 8.802C8.67147 8.96589 8.33839 9.05187 7.99978 9.05187C7.66116 9.05187 7.32809 8.96589 7.03178 8.802L2.57178 6.334V10.727C2.57173 10.801 2.58812 10.8742 2.61977 10.9411C2.65141 11.008 2.69753 11.0671 2.75478 11.114L2.82978 11.164L7.75778 13.892C7.81674 13.9246 7.88167 13.9449 7.94869 13.9518C8.01571 13.9587 8.08343 13.952 8.14778 13.932L8.24178 13.892L13.1698 11.164C13.2346 11.1281 13.2907 11.0783 13.3339 11.0181C13.3772 10.958 13.4065 10.8889 13.4198 10.816L13.4278 10.727V6.333ZM7.85178 2.211L7.75778 2.251L3.02478 4.871L7.75778 7.49C7.81674 7.5226 7.88167 7.54295 7.94869 7.54982C8.01571 7.5567 8.08343 7.54996 8.14778 7.53L8.24178 7.49L12.9738 4.87L8.24178 2.25C8.18282 2.21741 8.11788 2.19706 8.05086 2.19019C7.98384 2.18331 7.91613 2.19105 7.85178 2.211Z" fill="currentColor"/>
  </g>
</svg>