<?xml version="1.0" encoding="UTF-8"?>
<svg width="16" height="16" viewBox="0 0 16 16"  xmlns="http://www.w3.org/2000/svg">
  <g id="power-on" clip-path="url(#clip0_3017_86)">
<path d="M8 16C12.4183 16 16 12.4183 16 8C16 3.58172 12.4183 0 8 0C3.58172 0 0 3.58172 0 8C0 12.4183 3.58172 16 8 16Z" fill="currentColor"/>
<path fill-rule="evenodd" clip-rule="evenodd" d="M10.488 2.538C11.7328 3.1049 12.7465 4.07999 13.3613 5.30177C13.9761 6.52355 14.1551 7.9187 13.8687 9.25611C13.5822 10.5935 12.8475 11.793 11.7862 12.6557C10.7249 13.5185 9.40068 13.9928 8.03296 14.0002C6.66523 14.0075 5.33603 13.5474 4.26553 12.6961C3.19503 11.8447 2.44747 10.6533 2.14668 9.319C1.84588 7.98473 2.00991 6.58775 2.61158 5.35944C3.21325 4.13114 4.21646 3.14522 5.45504 2.565V4.288C4.66032 4.83311 4.06159 5.61896 3.74698 6.52987C3.43238 7.44078 3.41851 8.42863 3.70743 9.34801C3.99635 10.2674 4.57279 11.0697 5.3519 11.6369C6.13101 12.2041 7.07163 12.5062 8.03531 12.4988C8.99899 12.4913 9.93482 12.1747 10.705 11.5955C11.4753 11.0162 12.0392 10.2051 12.3138 9.28132C12.5885 8.35757 12.5593 7.37006 12.2306 6.46414C11.9019 5.55821 11.2911 4.78173 10.488 4.249V2.54V2.538ZM8.75004 0.590996V7H7.25004V0.854996L8.75004 0.589996V0.590996Z" fill="currentColor"/>
</g>
<defs>
<clipPath id="clip0_3017_86">
<rect width="16" height="16" fill="currentColor"/>
</clipPath>
</defs>
</svg>