<?xml version="1.0" encoding="UTF-8"?>
<svg width="16" height="16" viewBox="0 0 16 16" xmlns="http://www.w3.org/2000/svg">
  <g id="power-off">
    <path fill-rule="evenodd" clip-rule="evenodd" d="M10.99 1.66899C12.4252 2.34669 13.5874 3.49197 14.2861 4.91698C14.9848 6.34199 15.1786 7.96215 14.8355 9.51173C14.4925 11.0613 13.633 12.4483 12.3982 13.4453C11.1633 14.4422 9.62626 14.99 8.03918 14.9986C6.45211 15.0073 4.90921 14.4764 3.66352 13.4929C2.41782 12.5095 1.5433 11.132 1.18337 9.58623C0.82344 8.04049 0.999473 6.41831 1.6826 4.98576C2.36572 3.55321 3.51538 2.39532 4.94303 1.70199V3.42799C3.95962 4.08588 3.21458 5.04336 2.81851 6.15828C2.42245 7.2732 2.39648 8.48612 2.74446 9.61697C3.09245 10.7478 3.79583 11.7363 4.75018 12.4357C5.70454 13.1351 6.85898 13.508 8.04213 13.4992C9.22528 13.4904 10.374 13.1003 11.3179 12.3868C12.2617 11.6733 12.9503 10.6745 13.2814 9.53857C13.6126 8.40267 13.5686 7.19027 13.1559 6.08136C12.7433 4.97246 11.9841 4.02617 10.991 3.38299L10.99 1.66899ZM8.75003 0.149994V6.95299H7.25003V0.437994L8.75003 0.149994Z" fill="currentColor"/>
  </g>
</svg>