<?xml version="1.0" encoding="UTF-8"?>
<svg width="16" height="16" viewBox="0 0 16 16" xmlns="http://www.w3.org/2000/svg">
  <g id="priority-unknown">
    <path d="M8.392 11.654C8.52461 11.654 8.65178 11.7067 8.74555 11.8004C8.83932 11.8942 8.892 12.0214 8.892 12.154V13.154C8.892 13.2866 8.83932 13.4138 8.74555 13.5076C8.65178 13.6013 8.52461 13.654 8.392 13.654H7.392C7.25939 13.654 7.13221 13.6013 7.03845 13.5076C6.94468 13.4138 6.892 13.2866 6.892 13.154V12.154C6.892 12.0214 6.94468 11.8942 7.03845 11.8004C7.13221 11.7067 7.25939 11.654 7.392 11.654H8.392ZM8.062 5.5C8.511 5.5 8.881 5.56 9.172 5.679C9.462 5.799 9.692 5.949 9.861 6.131C10.029 6.314 10.147 6.513 10.213 6.731C10.28 6.948 10.313 7.155 10.313 7.351C10.313 7.548 10.283 7.728 10.223 7.893C10.164 8.058 10.089 8.211 9.998 8.351C9.906 8.491 9.801 8.624 9.682 8.751L9.506 8.935L9.072 9.377C8.98199 9.47042 8.8994 9.57073 8.825 9.677C8.75231 9.78027 8.69064 9.89088 8.641 10.007C8.60866 10.0821 8.58646 10.1611 8.575 10.242L8.567 10.36V10.486L8.569 10.566L8.577 10.634H7.19L7.173 10.522L7.163 10.397L7.158 10.171C7.158 9.974 7.183 9.797 7.232 9.64C7.281 9.482 7.346 9.335 7.426 9.198C7.507 9.061 7.6 8.933 7.706 8.814L7.866 8.638L8.031 8.467C8.193 8.305 8.34 8.146 8.473 7.988C8.60353 7.83777 8.67466 7.64501 8.673 7.446C8.67358 7.36433 8.65644 7.28352 8.62278 7.20911C8.58912 7.1347 8.53972 7.06848 8.478 7.015C8.348 6.895 8.158 6.836 7.905 6.836C7.653 6.836 7.415 6.868 7.19 6.931C7.021 6.978 6.84 7.047 6.643 7.138L6.443 7.236L6 6.047L6.17 5.947C6.405 5.819 6.67 5.717 6.968 5.642C7.32531 5.54919 7.69284 5.50148 8.062 5.5Z" fill="currentColor"/>
<path d="M7.99991 2.49999C10.8209 2.49999 13.4149 3.47299 15.4629 5.10299L14.4659 6.22699C12.6212 4.78079 10.344 3.99648 7.99991 3.99999C5.56191 3.99999 3.31691 4.83099 1.53491 6.22599L0.534912 5.10299C2.65585 3.4135 5.28832 2.49557 7.99991 2.49999Z" fill="currentColor"/>
  </g>
</svg>