<?xml version="1.0" encoding="UTF-8"?>
<svg width="16" height="16" viewBox="0 0 16 16" xmlns="http://www.w3.org/2000/svg">
  <g id="private-key">
    <path fill-rule="evenodd" clip-rule="evenodd" d="M5.50005 0.648376C8.17952 0.648376 10.3516 2.82052 10.3516 5.49999C10.3516 6.08426 10.2483 6.64441 10.059 7.16318L14.8851 12.0534V14.9553H11.0124L10.0545 13.9804L10.0548 13L9.08944 12.9994L8.05444 11.9464L8.05483 10.9938L7.11744 10.9934L6.40354 10.2676C6.17947 10.3098 5.94996 10.3366 5.71616 10.3469L5.50005 10.3516C2.82058 10.3516 0.648438 8.17946 0.648438 5.49999C0.648438 2.82052 2.82058 0.648376 5.50005 0.648376ZM5.50005 2.14838C3.64901 2.14838 2.14844 3.64894 2.14844 5.49999C2.14844 7.28933 3.55064 8.75117 5.28653 8.84697L5.46725 8.85196L5.65047 8.84831C5.75769 8.84361 5.86396 8.83389 5.96909 8.81923L6.12591 8.79354L6.91197 8.6455L7.74505 9.49299L9.55544 9.49453L9.55405 11.331L9.71905 11.5L11.5554 11.5009L11.554 13.367L11.641 13.455H13.385V12.669L8.32447 7.54099L8.64997 6.64899C8.78282 6.2849 8.85166 5.89827 8.85166 5.49999C8.85166 3.64894 7.3511 2.14838 5.50005 2.14838ZM6.00005 4.49999C6.00005 4.22385 5.77619 3.99999 5.50005 3.99999H4.50005C4.22391 3.99999 4.00005 4.22385 4.00005 4.49999V5.49999C4.00005 5.77613 4.22391 5.99999 4.50005 5.99999H5.50005C5.77619 5.99999 6.00005 5.77613 6.00005 5.49999V4.49999Z" fill="currentColor"/>
  </g>
</svg>