<?xml version="1.0" encoding="UTF-8"?>
<svg width="16" height="16" viewBox="0 0 16 16" xmlns="http://www.w3.org/2000/svg">
  <g id="profiles">
    <path fill-rule="evenodd" clip-rule="evenodd" d="M13.5001 10.9901V5.84556L11.5001 6.96094V10.0536L8.75004 11.625V13.619L13.5001 10.9901ZM7.25004 11.625V13.6191L2.5 10.9901V5.84554L4.50006 6.96096V10.0536L7.25004 11.625ZM7.25004 9.89735L6.00006 9.18307V7.7975L7.25004 8.4946V9.89735ZM8.75004 9.89737V8.4946L10.0001 7.79748V9.18307L8.75004 9.89737ZM10.7826 5.64357L12.7064 4.57072L8.00002 1.96594L3.29373 4.5707L5.21751 5.64358L8.00006 4.05356L10.7826 5.64357ZM6.74758 6.49689L8.00006 5.78119L9.25252 6.49688L8.00004 7.19538L6.74758 6.49689ZM8.72638 0.653543C8.27444 0.403409 7.72559 0.403409 7.27365 0.653543L1.77363 3.69761C1.29626 3.96182 1 4.4644 1 5.01001V10.9901C1 11.5357 1.29626 12.0383 1.77363 12.3025L7.27365 15.3466C7.72559 15.5967 8.27444 15.5967 8.72638 15.3466L14.2264 12.3025C14.7038 12.0383 15.0001 11.5357 15.0001 10.9901V5.01001C15.0001 4.4644 14.7038 3.96182 14.2264 3.69761L8.72638 0.653543Z" fill="currentColor"/>
  </g>
</svg>