<?xml version="1.0" encoding="UTF-8"?>
<svg width="16" height="16" viewBox="0 0 16 16" xmlns="http://www.w3.org/2000/svg">
  <g id="repository">
    <path fill-rule="evenodd" clip-rule="evenodd" d="M9.22565 1.18947L14.4505 4.12846C14.9319 4.39923 15.1026 5.00894 14.8318 5.4903C14.7421 5.64993 14.6102 5.78183 14.4505 5.87161L9.22565 8.81061C8.46462 9.23869 7.53538 9.23869 6.77435 8.81061L1.54947 5.87161C1.06811 5.60085 0.897389 4.99114 1.16815 4.50978C1.25794 4.35015 1.38984 4.21825 1.54947 4.12846L6.77435 1.18947C7.53538 0.761388 8.46462 0.761388 9.22565 1.18947ZM14.4505 8.87161C14.6102 8.78183 14.7421 8.64993 14.8318 8.4903C15.1026 8.00894 14.9319 7.39923 14.4505 7.12846L14.4732 7.14417L9.22565 10.0963L9.06955 10.1765L8.49026 10.5032L8.37321 10.5594C8.09397 10.6718 7.7761 10.6531 7.50974 10.5032L6.92775 10.1758C6.87594 10.1512 6.82478 10.1247 6.77435 10.0963L1.54947 7.15734L1.52656 7.14175C1.37721 7.23104 1.25361 7.35785 1.16815 7.50978C0.897389 7.99114 1.06811 8.60085 1.54947 8.87161L6.77435 11.8106C7.53538 12.2387 8.46462 12.2387 9.22565 11.8106L14.4505 8.87161ZM14.4505 11.8716C14.6102 11.7818 14.7421 11.6499 14.8318 11.4903C15.1026 11.0089 14.9319 10.3992 14.4505 10.1285L14.4732 10.1442L9.22565 13.0963L9.06955 13.1765L8.49026 13.5032L8.37321 13.5594C8.09397 13.6718 7.7761 13.6531 7.50974 13.5032L6.92775 13.1758C6.87594 13.1512 6.82478 13.1247 6.77435 13.0963L1.54947 10.1573L1.52656 10.1418C1.37721 10.231 1.25361 10.3579 1.16815 10.5098C0.897389 10.9911 1.06811 11.6009 1.54947 11.8716L6.77435 14.8106C7.53538 15.2387 8.46462 15.2387 9.22565 14.8106L14.4505 11.8716ZM7.50974 2.49683L7.62678 2.44065C7.90602 2.32828 8.2239 2.347 8.49026 2.49683L12.941 4.99904L8.49026 7.50325L8.37321 7.55943C8.09397 7.6718 7.7761 7.65307 7.50974 7.50325L3.058 5.00004L7.50974 2.49683Z" fill="currentColor"/>
  </g>
</svg>