<?xml version="1.0" encoding="UTF-8"?>
<svg width="16" height="16" viewBox="0 0 16 16" xmlns="http://www.w3.org/2000/svg">
  <g id="revisions">
    <path d="M2.58308 3.566L3.60208 4.697C3.09813 5.36852 2.75461 6.14649 2.59784 6.9713C2.44107 7.79612 2.47521 8.64587 2.69764 9.45545C2.92008 10.265 3.3249 11.0129 3.8811 11.6419C4.43729 12.2708 5.13008 12.764 5.90638 13.0838C6.68269 13.4035 7.52189 13.5413 8.35968 13.4866C9.19748 13.4319 10.0116 13.1861 10.7397 12.768C11.4678 12.3499 12.0905 11.7708 12.5602 11.0748C13.0298 10.3789 13.3339 9.58464 13.4491 8.753H14.9591C14.8427 9.83726 14.4746 10.8793 13.8842 11.7962C13.2938 12.713 12.4974 13.4792 11.5585 14.0338C10.6196 14.5884 9.56406 14.916 8.47613 14.9904C7.38819 15.0649 6.2979 14.8842 5.29216 14.4627C4.28642 14.0412 3.39304 13.3906 2.68323 12.5628C1.97343 11.735 1.46682 10.7528 1.20378 9.69446C0.940752 8.63618 0.928571 7.53108 1.16821 6.46726C1.40785 5.40343 1.89269 4.41029 2.58408 3.567L2.58308 3.566ZM5.74808 4.74L7.96908 7.25H12.0001V8.75H7.29408L4.62408 5.732L5.74808 4.74ZM13.7621 4.026C14.2551 4.738 14.6181 5.546 14.8201 6.416H13.2681C13.1353 5.97406 12.9471 5.5507 12.7081 5.156L13.7621 4.026ZM9.50408 1.162C10.4525 1.37003 11.347 1.774 12.1301 2.348L11.0971 3.454C10.6095 3.12101 10.0712 2.86909 9.50308 2.708L9.50408 1.162ZM7.16408 1.049L7.16508 2.563C6.53608 2.65859 5.92861 2.86333 5.37008 3.168L4.34408 2.03C5.20207 1.50309 6.16423 1.16772 7.16408 1.049Z" fill="currentColor"/>
  </g>
</svg>