<?xml version="1.0" encoding="UTF-8"?>
<svg width="16" height="16" viewBox="0 0 16 16" xmlns="http://www.w3.org/2000/svg">
  <g id="search">
    <path d="M6.96399 1C8.08013 1.00013 9.17384 1.31346 10.1207 1.90436C11.0676 2.49526 11.8297 3.34002 12.3203 4.34256C12.8109 5.34511 13.0103 6.4652 12.8959 7.57547C12.7815 8.68573 12.3578 9.7416 11.673 10.623L15.976 14.928L14.916 15.988L10.61 11.683C9.85937 12.2631 8.98121 12.6558 8.0484 12.8284C7.1156 13.001 6.15506 12.9487 5.24655 12.6757C4.33805 12.4026 3.50777 11.9168 2.82467 11.2586C2.14157 10.6003 1.62534 9.7886 1.31886 8.89083C1.01237 7.99305 0.924467 7.03512 1.06244 6.09656C1.20042 5.158 1.5603 4.26589 2.11219 3.49431C2.66409 2.72273 3.39208 2.09393 4.23573 1.66012C5.07938 1.22631 6.01434 1.00001 6.96299 1H6.96399ZM6.96399 2.5C6.37221 2.49114 5.78458 2.60005 5.23528 2.82039C4.68598 3.04072 4.18598 3.36809 3.76436 3.78344C3.34274 4.19879 3.00793 4.69384 2.7794 5.23978C2.55087 5.78572 2.43318 6.37166 2.43318 6.9635C2.43318 7.55534 2.55087 8.14128 2.7794 8.68722C3.00793 9.23316 3.34274 9.72821 3.76436 10.1436C4.18598 10.5589 4.68598 10.8863 5.23528 11.1066C5.78458 11.327 6.37221 11.4359 6.96399 11.427C8.13621 11.4095 9.25448 10.9315 10.0772 10.0963C10.9 9.26115 11.3612 8.13585 11.3612 6.9635C11.3612 5.79115 10.9 4.66585 10.0772 3.83069C9.25448 2.99553 8.13621 2.51755 6.96399 2.5Z" fill="currentColor"/>
  </g>
</svg>