<?xml version="1.0" encoding="UTF-8"?>
<svg width="16" height="16" viewBox="0 0 16 16" xmlns="http://www.w3.org/2000/svg">
  <g id="security-warning">
    <path d="M8.5 11H7.5C7.22386 11 7 10.7761 7 10.5V9.5C7 9.22386 7.22386 9 7.5 9H8.5C8.77614 9 9 9.22386 9 9.5V10.5C9 10.7761 8.77614 11 8.5 11Z" fill="currentColor"/>
<path d="M9 4H7V8H9V4Z" fill="currentColor"/>
<path fill-rule="evenodd" clip-rule="evenodd" d="M8 15C8 15 14 12 14 7.5V2L8 1L2 2V7.5C2 12 8 15 8 15ZM3.5 3.27069V7.5C3.5 9.08034 4.57738 10.5746 5.98776 11.8086C6.66143 12.3981 7.34219 12.8669 7.8575 13.1889C7.90671 13.2197 7.95426 13.249 8 13.2769C8.04574 13.249 8.09329 13.2197 8.1425 13.1889C8.65781 12.8669 9.33857 12.3981 10.0122 11.8086C11.4226 10.5746 12.5 9.08034 12.5 7.5V3.27069L8 2.52069L3.5 3.27069Z" fill="currentColor"/>
  </g>
</svg>