<?xml version="1.0" encoding="UTF-8"?>
<svg width="16" height="16" viewBox="0 0 16 16" xmlns="http://www.w3.org/2000/svg">
  <g id="security">
    <path d="M8 1C9.143 2.048 10.167 2.722 11.074 3.025C11.98 3.327 12.956 3.319 14 3L13.415 9.017C13.187 11.757 8.894 14.967 8.228 14.995L8 15C7 15 2.82 11.834 2.585 9.017L2 3C2.847 3.384 3.819 3.394 4.916 3.028C6.012 2.663 7.04 1.986 8 1ZM8.031 2.991L7.919 3.082C7.15926 3.67798 6.30421 4.14117 5.39 4.452C4.95076 4.6004 4.49735 4.70295 4.037 4.758L3.68 4.787L4.08 8.893C4.144 9.666 4.798 10.736 5.83 11.773L6.04 11.979C6.546 12.461 7.09 12.891 7.57 13.195C7.735 13.3 7.883 13.385 8.005 13.445L8.035 13.458L8.105 13.418L8.315 13.283L8.43 13.203C8.904 12.874 9.443 12.429 9.942 11.946C11.044 10.878 11.767 9.799 11.904 9.016L11.922 8.872L12.323 4.744L12.033 4.731C11.6433 4.70442 11.2574 4.63841 10.881 4.534L10.599 4.448C9.813 4.186 8.999 3.728 8.147 3.081L8.031 2.991Z" fill="currentColor"/>
  </g>
</svg>