<?xml version="1.0" encoding="UTF-8"?>
<svg width="16" height="16" viewBox="0 0 16 16" xmlns="http://www.w3.org/2000/svg">
  <g id="select-remove">
    <path fill-rule="evenodd" clip-rule="evenodd" d="M12.1255 14H14V12.1255H12.5V12.5H12.1255V14ZM14 8.75V10.6255H12.5V8.75H14ZM3.5 7.25V5.375H2V7.25H3.5ZM2 8.75V10.6255H3.5V8.75H2ZM2 12.1255H3.5V12.5H3.875V14H2V12.1255ZM12.5 7.25H14V5.375H12.5V7.25ZM3.5 3.875V3.5H3.875V2H2V3.875H3.5ZM12.5 3.875V3.5H12.1255V2H14V3.875H12.5ZM10.6255 3.5V2H8.75V3.5H10.6255ZM10.6255 12.5V14H8.75V12.5H10.6255ZM7.25 2V3.5H5.375V2H7.25ZM7.25 14V12.5H5.375V14H7.25Z" fill="currentColor"/>
<path d="M10.75 7.25V8.75H5.25V7.25H10.75Z" fill="currentColor"/>
  </g>
</svg>