<?xml version="1.0" encoding="UTF-8"?>
<svg width="16" height="16" viewBox="0 0 16 16" xmlns="http://www.w3.org/2000/svg">
  <g id="select-add">
    <path fill-rule="evenodd" clip-rule="evenodd" d="M12.1255 14V12.5H12.5V12.1255H14V14H12.1255ZM14 10.6255V8.75H12.5V10.6255H14ZM3.5 5.375V7.25H2V5.375H3.5ZM2 10.6255V8.75H3.5V10.6255H2ZM2 12.1255V14H3.875V12.5H3.5V12.1255H2ZM14 7.25H12.5V5.375H14V7.25ZM3.5 3.5V3.875H2V2H3.875V3.5H3.5ZM12.5 3.5V3.875H14V2H12.1255V3.5H12.5ZM10.6255 2V3.5H8.75V2H10.6255ZM10.6255 14V12.5H8.75V14H10.6255ZM7.25 3.5V2H5.375V3.5H7.25ZM7.25 12.5V14H5.375V12.5H7.25ZM7.25 5.25H8.75V7.25H10.75V8.75H8.75V10.75H7.25V8.75H5.25V7.25H7.25V5.25Z" fill="currentColor"/>
  </g>
</svg>