<?xml version="1.0" encoding="UTF-8"?>
<svg width="16" height="16" viewBox="0 0 16 16"  xmlns="http://www.w3.org/2000/svg">
  <g id="settings" clip-path="url(#clip0_3017_91)">
<path d="M9.81693 0.639C11.2083 0.982502 12.4737 1.71384 13.4659 2.748L12.7979 4.597C13.0099 4.894 13.1939 5.212 13.3479 5.547L15.2839 5.893C15.4769 6.562 15.5799 7.269 15.5799 8C15.5799 8.731 15.4769 9.438 15.2839 10.107L13.3479 10.453C13.1946 10.7861 13.0105 11.1042 12.7979 11.403L13.4659 13.253C12.4733 14.287 11.2076 15.018 9.81593 15.361L8.54793 13.857C8.18337 13.8907 7.81648 13.8907 7.45193 13.857L6.18393 15.361C4.79216 15.0177 3.52643 14.2863 2.53393 13.252L3.20193 11.403C2.98935 11.1042 2.80521 10.7861 2.65193 10.453L0.715927 10.107C0.518741 9.42207 0.419094 8.71275 0.419927 8C0.419927 7.269 0.522927 6.562 0.715927 5.893L2.65193 5.547C2.80593 5.212 2.98993 4.894 3.20193 4.597L2.53393 2.747C3.52668 1.7134 4.79238 0.982767 6.18393 0.64L7.45193 2.144C7.81648 2.11031 8.18337 2.11031 8.54793 2.144L9.81693 0.639ZM10.3129 2.376L9.18993 3.709L8.40993 3.637C8.27364 3.62404 8.13683 3.61737 7.99993 3.617L7.79393 3.623L7.58993 3.637L6.80993 3.709L5.68593 2.376L5.46393 2.472C5.11793 2.631 4.78893 2.822 4.47993 3.042L4.28593 3.186L4.87893 4.826L4.42393 5.466C4.31875 5.61423 4.2229 5.76887 4.13693 5.929L4.01493 6.173L3.68793 6.886L1.97493 7.191L1.95793 7.311C1.94505 7.42504 1.93538 7.53942 1.92893 7.654L1.91993 8C1.91993 8.232 1.93393 8.462 1.95993 8.689L1.97593 8.808L3.68893 9.114L4.01593 9.827C4.09193 9.992 4.17793 10.152 4.27393 10.307L4.42493 10.534L4.87993 11.174L4.28693 12.813L4.48093 12.958C4.79093 13.178 5.11893 13.369 5.46493 13.528L5.68693 13.623L6.80993 12.291L7.58993 12.363C7.72593 12.376 7.86293 12.383 8.00093 12.383L8.20693 12.377L8.41093 12.363L9.19093 12.291L10.3139 13.623L10.5379 13.528C10.8829 13.369 11.2119 13.178 11.5209 12.958L11.7139 12.813L11.1219 11.174L11.5769 10.534C11.6819 10.386 11.7779 10.231 11.8639 10.071L11.9859 9.827L12.3129 9.114L14.0249 8.808L14.0429 8.688C14.0559 8.575 14.0649 8.461 14.0719 8.346L14.0799 8C14.0799 7.768 14.0659 7.538 14.0399 7.311L14.0229 7.191L12.3109 6.886L11.9839 6.173C11.908 6.00779 11.8218 5.84747 11.7259 5.693L11.5749 5.466L11.1199 4.826L11.7119 3.186L11.5189 3.042C11.2099 2.822 10.8809 2.631 10.5359 2.472L10.3129 2.376ZM7.99993 5C8.79558 5 9.55864 5.31607 10.1212 5.87868C10.6839 6.44129 10.9999 7.20435 10.9999 8C10.9999 8.79565 10.6839 9.55871 10.1212 10.1213C9.55864 10.6839 8.79558 11 7.99993 11C7.20428 11 6.44122 10.6839 5.87861 10.1213C5.316 9.55871 4.99993 8.79565 4.99993 8C4.99993 7.20435 5.316 6.44129 5.87861 5.87868C6.44122 5.31607 7.20428 5 7.99993 5ZM7.99993 6.5C7.6021 6.5 7.22057 6.65804 6.93927 6.93934C6.65796 7.22064 6.49993 7.60218 6.49993 8C6.49993 8.39782 6.65796 8.77936 6.93927 9.06066C7.22057 9.34196 7.6021 9.5 7.99993 9.5C8.39775 9.5 8.77928 9.34196 9.06059 9.06066C9.34189 8.77936 9.49993 8.39782 9.49993 8C9.49993 7.60218 9.34189 7.22064 9.06059 6.93934C8.77928 6.65804 8.39775 6.5 7.99993 6.5Z" fill="currentColor"/>
</g>
<defs>
<clipPath id="clip0_3017_91">
<rect width="16" height="16" fill="currentColor"/>
</clipPath>
</defs>
</svg>