<?xml version="1.0" encoding="UTF-8"?>
<svg width="16" height="16" viewBox="0 0 16 16" xmlns="http://www.w3.org/2000/svg">
  <g id="share">
    <path d="M11.9998 0C12.4932 5.92356e-05 12.979 0.12182 13.4141 0.354495C13.8492 0.587169 14.2202 0.923574 14.4942 1.3339C14.7683 1.74423 14.9369 2.21581 14.9851 2.70687C15.0333 3.19792 14.9596 3.69329 14.7706 4.14908C14.5817 4.60487 14.2832 5.007 13.9016 5.31986C13.5201 5.63271 13.0672 5.84663 12.5832 5.94265C12.0993 6.03867 11.5991 6.01383 11.127 5.87033C10.6549 5.72684 10.2255 5.46912 9.87679 5.12L6.86879 7.12C7.05384 7.7237 7.0437 8.3704 6.83979 8.968L9.89779 10.858C10.419 10.3466 11.1087 10.0428 11.8379 10.0036C12.567 9.96435 13.2854 10.1924 13.8584 10.6449C14.4314 11.0975 14.8197 11.7435 14.9505 12.4619C15.0813 13.1803 14.9456 13.9217 14.5688 14.5471C14.1921 15.1726 13.6002 15.6392 12.904 15.8595C12.2078 16.0797 11.4552 16.0386 10.7873 15.7436C10.1193 15.4487 9.58184 14.9203 9.2756 14.2574C8.96937 13.5946 8.91539 12.8428 9.12379 12.143L6.01479 10.221C5.58156 10.6139 5.04294 10.8715 4.46519 10.9623C3.88744 11.0531 3.29575 10.973 2.76291 10.732C2.23007 10.4909 1.77931 10.0993 1.46607 9.60546C1.15284 9.11157 0.990797 8.5369 0.999873 7.95213C1.00895 7.36736 1.18875 6.798 1.51716 6.31407C1.84557 5.83015 2.30827 5.45277 2.84834 5.22835C3.3884 5.00393 3.98229 4.94227 4.55695 5.05094C5.1316 5.15961 5.66196 5.43387 6.08279 5.84L9.11479 3.823C8.98786 3.37658 8.96617 2.90682 9.05142 2.4506C9.13666 1.99438 9.32653 1.56415 9.60609 1.19369C9.88566 0.823225 10.2473 0.522628 10.6626 0.315511C11.078 0.108393 11.5357 0.000394666 11.9998 0ZM11.9998 11.5C11.602 11.5 11.2204 11.658 10.9391 11.9393C10.6578 12.2206 10.4998 12.6022 10.4998 13C10.4998 13.3978 10.6578 13.7794 10.9391 14.0607C11.2204 14.342 11.602 14.5 11.9998 14.5C12.3976 14.5 12.7791 14.342 13.0605 14.0607C13.3418 13.7794 13.4998 13.3978 13.4998 13C13.4998 12.6022 13.3418 12.2206 13.0605 11.9393C12.7791 11.658 12.3976 11.5 11.9998 11.5ZM3.99979 6.5C3.60197 6.5 3.22043 6.65804 2.93913 6.93934C2.65783 7.22064 2.49979 7.60218 2.49979 8C2.49979 8.39782 2.65783 8.77936 2.93913 9.06066C3.22043 9.34196 3.60197 9.5 3.99979 9.5C4.39762 9.5 4.77915 9.34196 5.06045 9.06066C5.34175 8.77936 5.49979 8.39782 5.49979 8C5.49979 7.60218 5.34175 7.22064 5.06045 6.93934C4.77915 6.65804 4.39762 6.5 3.99979 6.5ZM11.9998 1.5C11.602 1.5 11.2204 1.65804 10.9391 1.93934C10.6578 2.22064 10.4998 2.60218 10.4998 3C10.4998 3.39782 10.6578 3.77936 10.9391 4.06066C11.2204 4.34196 11.602 4.5 11.9998 4.5C12.3976 4.5 12.7791 4.34196 13.0605 4.06066C13.3418 3.77936 13.4998 3.39782 13.4998 3C13.4998 2.60218 13.3418 2.22064 13.0605 1.93934C12.7791 1.65804 12.3976 1.5 11.9998 1.5Z" fill="currentColor"/>
  </g>
</svg>