<?xml version="1.0" encoding="UTF-8"?>
<svg width="16" height="16" viewBox="0 0 16 16" xmlns="http://www.w3.org/2000/svg">
  <g id="show">
    <path fill-rule="evenodd" clip-rule="evenodd" d="M8 3.002C10.946 3.002 13.612 4.668 16 8C13.612 11.332 10.946 12.998 8 12.998C5.054 12.998 2.388 11.332 0 8C2.388 4.668 5.054 3.002 8 3.002ZM8 5C7.20435 5 6.44129 5.31607 5.87868 5.87868C5.31607 6.44129 5 7.20435 5 8C5 8.79565 5.31607 9.55871 5.87868 10.1213C6.44129 10.6839 7.20435 11 8 11C8.79565 11 9.55871 10.6839 10.1213 10.1213C10.6839 9.55871 11 8.79565 11 8C11 7.20435 10.6839 6.44129 10.1213 5.87868C9.55871 5.31607 8.79565 5 8 5ZM8 6.49C8.40048 6.49 8.78455 6.64909 9.06773 6.93227C9.35091 7.21545 9.51 7.59952 9.51 8C9.51 8.40048 9.35091 8.78455 9.06773 9.06773C8.78455 9.35091 8.40048 9.51 8 9.51C7.59952 9.51 7.21545 9.35091 6.93227 9.06773C6.64909 8.78455 6.49 8.40048 6.49 8C6.49 7.59952 6.64909 7.21545 6.93227 6.93227C7.21545 6.64909 7.59952 6.49 8 6.49Z" fill="currentColor"/>
  </g>
</svg>