<?xml version="1.0" encoding="UTF-8"?>
<svg width="16" height="16" viewBox="0 0 16 16" xmlns="http://www.w3.org/2000/svg">
  <g id="snapshot">
    <path fill-rule="evenodd" clip-rule="evenodd" d="M5.58127 4.50702L5.22464 5.5H2.5V12.5H13.5V5.5H10.7754L10.4187 4.50702L10.418 4.50532C10.418 4.50532 10.4166 4.50246 10.4152 4.49999L10.1295 4H5.87048L5.58477 4.5M11.8304 4H13.5C14.3284 4 15 4.67157 15 5.5V12.5C15 13.3284 14.3284 14 13.5 14H2.5C1.67157 14 1 13.3284 1 12.5V5.5C1 4.67157 1.67157 4 2.5 4H4.16955C4.19917 3.91754 4.23664 3.83588 4.2824 3.75579L4.56812 3.25579C4.83518 2.78843 5.3322 2.5 5.87048 2.5H10.1295C10.6678 2.5 11.1648 2.78843 11.4319 3.25579L11.7176 3.75579C11.7634 3.83588 11.8008 3.91754 11.8304 4ZM5.58199 4.50532C5.58199 4.50532 5.58337 4.50246 5.58477 4.5L5.58199 4.50532Z" fill="currentColor"/>
<path fill-rule="evenodd" clip-rule="evenodd" d="M9.5 9C9.5 9.82843 8.82843 10.5 8 10.5C7.17157 10.5 6.5 9.82843 6.5 9C6.5 8.17157 7.17157 7.5 8 7.5C8.82843 7.5 9.5 8.17157 9.5 9ZM11 9C11 10.6569 9.65685 12 8 12C6.34315 12 5 10.6569 5 9C5 7.34315 6.34315 6 8 6C9.65685 6 11 7.34315 11 9ZM12 8C12.5523 8 13 7.55228 13 7C13 6.44772 12.5523 6 12 6C11.4477 6 11 6.44772 11 7C11 7.55228 11.4477 8 12 8Z" fill="currentColor"/>
  </g>
</svg>