<?xml version="1.0" encoding="UTF-8"?>
<svg width="16" height="16" viewBox="0 0 16 16" xmlns="http://www.w3.org/2000/svg">
  <g id="snooze">
    <path fill-rule="evenodd" clip-rule="evenodd" d="M13.9468 6.08689V7.32689H9.59682V6.44689C9.73682 6.20689 9.90515 5.94856 10.1018 5.67189C10.2985 5.39523 10.5051 5.11689 10.7218 4.83689C10.9385 4.55689 11.1535 4.28523 11.3668 4.02189C11.5801 3.75856 11.7768 3.52023 11.9568 3.30689H9.71682V2.06689H13.8968V3.06689C13.7768 3.20023 13.6151 3.38023 13.4118 3.60689C13.2085 3.83356 12.9901 4.08356 12.7568 4.35689C12.5235 4.63023 12.2885 4.91689 12.0518 5.21689C11.8151 5.51689 11.6001 5.80689 11.4068 6.08689H13.9468ZM7.8948 12.6724V14.0864H2.0708V13.0364C2.27613 12.6631 2.5328 12.2571 2.8408 11.8184C3.1488 11.3798 3.46613 10.9388 3.7928 10.4954C4.11947 10.0521 4.4438 9.62977 4.7658 9.22844C5.0878 8.8271 5.3748 8.4771 5.6268 8.17844H2.2528V6.76444H7.8108V7.95444C7.62413 8.15044 7.37913 8.42577 7.0758 8.78044C6.77247 9.1351 6.44813 9.52944 6.1028 9.96344C5.75747 10.3974 5.4098 10.8501 5.0598 11.3214C4.7098 11.7928 4.3948 12.2431 4.1148 12.6724H7.8948Z" fill="currentColor"/>
  </g>
</svg>