<?xml version="1.0" encoding="UTF-8"?>
<svg width="16" height="16" viewBox="0 0 16 16" xmlns="http://www.w3.org/2000/svg">
  <g id="statistics">
    <path fill-rule="evenodd" clip-rule="evenodd" d="M3.75 13.25V2H2.25V13.25C2.25 14.0784 2.92157 14.75 3.75 14.75H14V13.25H3.75ZM14.0599 3.06105C14.2181 2.67825 14.036 2.23966 13.6532 2.08143C13.2704 1.92321 12.8318 2.10526 12.6736 2.48807L10.7304 7.18925C10.6756 7.32202 10.5204 7.38133 10.3909 7.31899L9.15245 6.72249C8.33407 6.32832 7.35016 6.62583 6.8873 7.40741L4.87085 10.8123C4.65978 11.1688 4.7776 11.6288 5.134 11.8398C5.49041 12.0509 5.95043 11.9331 6.1615 11.5767L8.17795 8.17175C8.24408 8.0601 8.38463 8.0176 8.50155 8.07391L9.74002 8.67041C10.646 9.10678 11.7326 8.6916 12.1167 7.76224L14.0599 3.06105Z" fill="currentColor"/>
  </g>
</svg>