<?xml version="1.0" encoding="UTF-8"?>
<svg width="16" height="16" viewBox="0 0 16 16" xmlns="http://www.w3.org/2000/svg">
  <g id="status-queued">
    <path d="M8 15C11.866 15 15 11.866 15 8C15 4.13401 11.866 1 8 1C4.13401 1 1 4.13401 1 8C1 11.866 4.13401 15 8 15Z" fill="currentColor"/>
<path fill-rule="evenodd" clip-rule="evenodd" d="M5.99994 5C6.16294 5 6.32194 5.013 6.47794 5.038C6.04811 5.40255 5.70289 5.85638 5.46629 6.36791C5.22969 6.87945 5.1074 7.4364 5.10794 8C5.10794 9.186 5.63994 10.249 6.47794 10.963C6.06958 11.0277 5.65224 11.0073 5.25213 10.9031C4.85201 10.7989 4.47776 10.6131 4.15286 10.3574C3.82796 10.1017 3.55943 9.78155 3.36412 9.41713C3.16881 9.05271 3.05093 8.65184 3.01789 8.2397C2.98486 7.82756 3.03737 7.41304 3.17213 7.02216C3.3069 6.63127 3.52101 6.27247 3.80102 5.96826C4.08104 5.66405 4.42091 5.421 4.79932 5.25438C5.17772 5.08776 5.58648 5.00115 5.99994 5ZM9.99994 5C10.7956 5 11.5587 5.31607 12.1213 5.87868C12.6839 6.44129 12.9999 7.20435 12.9999 8C12.9999 8.79565 12.6839 9.55871 12.1213 10.1213C11.5587 10.6839 10.7956 11 9.99994 11C9.20429 11 8.44123 10.6839 7.87862 10.1213C7.31601 9.55871 6.99994 8.79565 6.99994 8C6.99994 7.20435 7.31601 6.44129 7.87862 5.87868C8.44123 5.31607 9.20429 5 9.99994 5ZM9.99994 6.5C9.60212 6.5 9.22059 6.65804 8.93928 6.93934C8.65798 7.22064 8.49994 7.60218 8.49994 8C8.49994 8.39782 8.65798 8.77936 8.93928 9.06066C9.22059 9.34196 9.60212 9.5 9.99994 9.5C10.3978 9.5 10.7793 9.34196 11.0606 9.06066C11.3419 8.77936 11.4999 8.39782 11.4999 8C11.4999 7.60218 11.3419 7.22064 11.0606 6.93934C10.7793 6.65804 10.3978 6.5 9.99994 6.5Z" fill="currentColor"/>
  </g>
</svg>