<?xml version="1.0" encoding="UTF-8"?>
<svg width="16" height="16" viewBox="0 0 16 16" xmlns="http://www.w3.org/2000/svg">
  <g id="switcher-dashboard">
    <path d="M6.25 9C6.44891 9 6.63968 9.07902 6.78033 9.21967C6.92098 9.36032 7 9.55109 7 9.75V13.25C7 13.4489 6.92098 13.6397 6.78033 13.7803C6.63968 13.921 6.44891 14 6.25 14H2.75C2.55109 14 2.36032 13.921 2.21967 13.7803C2.07902 13.6397 2 13.4489 2 13.25V9.75C2 9.55109 2.07902 9.36032 2.21967 9.21967C2.36032 9.07902 2.55109 9 2.75 9H6.25ZM13.25 9C13.4489 9 13.6397 9.07902 13.7803 9.21967C13.921 9.36032 14 9.55109 14 9.75V13.25C14 13.4489 13.921 13.6397 13.7803 13.7803C13.6397 13.921 13.4489 14 13.25 14H9.75C9.55109 14 9.36032 13.921 9.21967 13.7803C9.07902 13.6397 9 13.4489 9 13.25V9.75C9 9.55109 9.07902 9.36032 9.21967 9.21967C9.36032 9.07902 9.55109 9 9.75 9H13.25ZM5.5 10.5H3.5V12.5H5.5V10.5ZM12.5 10.5H10.5V12.5H12.5V10.5ZM6.25 2C6.44891 2 6.63968 2.07902 6.78033 2.21967C6.92098 2.36032 7 2.55109 7 2.75V6.25C7 6.44891 6.92098 6.63968 6.78033 6.78033C6.63968 6.92098 6.44891 7 6.25 7H2.75C2.55109 7 2.36032 6.92098 2.21967 6.78033C2.07902 6.63968 2 6.44891 2 6.25V2.75C2 2.55109 2.07902 2.36032 2.21967 2.21967C2.36032 2.07902 2.55109 2 2.75 2H6.25ZM13.25 2C13.4489 2 13.6397 2.07902 13.7803 2.21967C13.921 2.36032 14 2.55109 14 2.75V6.25C14 6.44891 13.921 6.63968 13.7803 6.78033C13.6397 6.92098 13.4489 7 13.25 7H9.75C9.55109 7 9.36032 6.92098 9.21967 6.78033C9.07902 6.63968 9 6.44891 9 6.25V2.75C9 2.55109 9.07902 2.36032 9.21967 2.21967C9.36032 2.07902 9.55109 2 9.75 2H13.25ZM5.5 3.5H3.5V5.5H5.5V3.5ZM12.5 3.5H10.5V5.5H12.5V3.5Z" fill="currentColor"/>
  </g>
</svg>