<?xml version="1.0" encoding="UTF-8"?>
<svg width="16" height="16" viewBox="0 0 16 16" xmlns="http://www.w3.org/2000/svg">
  <g id="switcher-environments">
    <path d="M3.5 12C3.63261 12 3.75979 12.0527 3.85355 12.1464C3.94732 12.2402 4 12.3674 4 12.5V13.5C4 13.6326 3.94732 13.7598 3.85355 13.8536C3.75979 13.9473 3.63261 14 3.5 14H2.5C2.36739 14 2.24021 13.9473 2.14645 13.8536C2.05268 13.7598 2 13.6326 2 13.5V12.5C2 12.3674 2.05268 12.2402 2.14645 12.1464C2.24021 12.0527 2.36739 12 2.5 12H3.5ZM13 12.25V13.75H6V12.25H13ZM3.5 7C3.63261 7 3.75979 7.05268 3.85355 7.14645C3.94732 7.24021 4 7.36739 4 7.5V8.5C4 8.63261 3.94732 8.75979 3.85355 8.85355C3.75979 8.94732 3.63261 9 3.5 9H2.5C2.36739 9 2.24021 8.94732 2.14645 8.85355C2.05268 8.75979 2 8.63261 2 8.5V7.5C2 7.36739 2.05268 7.24021 2.14645 7.14645C2.24021 7.05268 2.36739 7 2.5 7H3.5ZM12 7.25V8.75H6V7.25H12ZM3.5 2C3.63261 2 3.75979 2.05268 3.85355 2.14645C3.94732 2.24021 4 2.36739 4 2.5V3.5C4 3.63261 3.94732 3.75979 3.85355 3.85355C3.75979 3.94732 3.63261 4 3.5 4H2.5C2.36739 4 2.24021 3.94732 2.14645 3.85355C2.05268 3.75979 2 3.63261 2 3.5V2.5C2 2.36739 2.05268 2.24021 2.14645 2.14645C2.24021 2.05268 2.36739 2 2.5 2H3.5ZM14 2.25V3.75H6V2.25H14Z" fill="currentColor"/>
  </g>
</svg>