<?xml version="1.0" encoding="UTF-8"?>
<svg width="16" height="16" viewBox="0 0 16 16"  xmlns="http://www.w3.org/2000/svg">
  <g id="switcher" clip-path="url(#clip0_3017_109)">
<path fill-rule="evenodd" clip-rule="evenodd" d="M14.4871 0.073998L15.5471 1.135L13.9971 2.687L14.0001 2.75V6.25C14.0001 6.44891 13.9211 6.63968 13.7805 6.78033C13.6398 6.92098 13.449 7 13.2501 7H9.75012L9.68712 6.994L6.99712 9.687L7.00012 9.75V13.25C7.00012 13.4489 6.9211 13.6397 6.78045 13.7803C6.6398 13.921 6.44903 14 6.25012 14H2.75012L2.68712 13.994L1.16012 15.523L0.0991211 14.463L14.4871 0.072998V0.073998ZM13.2501 9C13.449 9 13.6398 9.07902 13.7805 9.21967C13.9211 9.36032 14.0001 9.55109 14.0001 9.75V13.25C14.0001 13.4489 13.9211 13.6397 13.7805 13.7803C13.6398 13.921 13.449 14 13.2501 14H9.75012C9.55121 14 9.36044 13.921 9.21979 13.7803C9.07914 13.6397 9.00012 13.4489 9.00012 13.25V9.75C9.00012 9.55109 9.07914 9.36032 9.21979 9.21967C9.36044 9.07902 9.55121 9 9.75012 9H13.2501ZM5.49912 11.182L4.18212 12.5H5.50012L5.49912 11.182ZM12.5001 10.5H10.5001V12.5H12.5001V10.5ZM5.12112 7.25L3.62112 8.75H2.00012V7.25H5.12112ZM12.4991 4.182L11.1821 5.5H12.5001L12.4991 4.182ZM10.1211 2.25L8.62112 3.75H2.00012V2.25H10.1211Z" fill="currentColor"/>
</g>
<defs>
<clipPath id="clip0_3017_109">
<rect width="16" height="16" fill="currentColor"/>
</clipPath>
</defs>
</svg>