<?xml version="1.0" encoding="UTF-8"?>
<svg width="16" height="16" viewBox="0 0 16 16" xmlns="http://www.w3.org/2000/svg">
  <g id="tag">
    <path d="M13.5002 1C13.898 1 14.2795 1.15804 14.5608 1.43934C14.8421 1.72064 15.0002 2.10218 15.0002 2.5V8H14.9772L8.51115 14.467C8.1361 14.8419 7.62748 15.0526 7.09716 15.0526C6.56683 15.0526 6.05821 14.8419 5.68316 14.467L1.52015 10.305C1.33435 10.1193 1.18696 9.89876 1.0864 9.65605C0.98584 9.41335 0.934082 9.15321 0.934082 8.8905C0.934082 8.62779 0.98584 8.36765 1.0864 8.12495C1.18696 7.88224 1.33435 7.66173 1.52015 7.476L7.99216 1.004L7.99916 1.012L8.00015 1H13.5002ZM13.5002 2.5L8.61816 2.499L2.58116 8.537C2.49833 8.61973 2.44715 8.7289 2.43656 8.84549C2.42596 8.96208 2.4566 9.07869 2.52315 9.175L2.58116 9.245L6.74415 13.407C6.82682 13.4896 6.9358 13.5406 7.05217 13.5512C7.16853 13.5618 7.28493 13.5313 7.38116 13.465L7.45116 13.407L13.4992 7.356L13.5002 2.5ZM11.0072 3.91C11.1554 3.90555 11.303 3.9309 11.4413 3.98455C11.5795 4.0382 11.7056 4.11906 11.8121 4.22235C11.9185 4.32563 12.0031 4.44922 12.0609 4.58581C12.1187 4.7224 12.1484 4.86919 12.1484 5.0175C12.1484 5.16581 12.1187 5.3126 12.0609 5.44919C12.0031 5.58578 11.9185 5.70937 11.8121 5.81265C11.7056 5.91594 11.5795 5.9968 11.4413 6.05045C11.303 6.1041 11.1554 6.12946 11.0072 6.125C10.7133 6.125 10.4315 6.00826 10.2237 5.80047C10.0159 5.59268 9.89915 5.31086 9.89915 5.017C9.89915 4.72314 10.0159 4.44132 10.2237 4.23353C10.4315 4.02574 10.7133 3.909 11.0072 3.909V3.91Z" fill="currentColor"/>
  </g>
</svg>