<?xml version="1.0" encoding="UTF-8"?>
<svg width="16" height="16" viewBox="0 0 16 16" xmlns="http://www.w3.org/2000/svg">
  <g id="thumbs-up">
    <path fill-rule="evenodd" clip-rule="evenodd" d="M3.5 6.5H2.5V12.5H3.5V6.5ZM5 12.5H9.25527C10.4519 12.5 11.5656 11.8886 12.2081 10.8791L12.976 9.67237C13.4974 8.85299 13.5805 7.82894 13.1979 6.93625C13.0844 6.67159 12.8242 6.5 12.5363 6.5H8.5V2.50257C8.23928 2.52558 8.01412 2.70106 7.93019 2.95285L7.8113 3.30952C7.45417 4.38091 6.75011 5.3027 5.81044 5.92915L5 6.46944V12.5ZM8.55848 1C7.62777 1 6.80148 1.59556 6.50716 2.47851L6.38827 2.83518C6.13662 3.59013 5.64052 4.23966 4.97839 4.68108L4.5 5H1V14H9.25527C10.9648 14 12.5558 13.1266 13.4736 11.6844L14.2415 10.4777C15.029 9.24019 15.1544 7.69359 14.5766 6.34537C14.2268 5.52919 13.4243 5 12.5363 5H10V2.44152C10 1.64539 9.35461 1 8.55848 1Z" fill="currentColor"/>
  </g>
</svg>