<?xml version="1.0" encoding="UTF-8"?>
<svg width="16" height="16" viewBox="0 0 16 16" xmlns="http://www.w3.org/2000/svg">
  <g id="thumbs-down">
    <path fill-rule="evenodd" clip-rule="evenodd" d="M12.3399 9.5H13.3399V3.5H12.3399V9.5ZM10.8399 3.5H6.58459C5.38794 3.5 4.27422 4.11137 3.63177 5.12094L2.86388 6.32763C2.34245 7.14701 2.25941 8.17106 2.64199 9.06375C2.75541 9.32841 3.01564 9.5 3.30357 9.5H7.33986V13.4974C7.60057 13.4744 7.82574 13.2989 7.90967 13.0472L8.02856 12.6905C8.38569 11.6191 9.08975 10.6973 10.0295 10.0708L10.8399 9.53056V3.5ZM7.28138 15C8.21209 15 9.03838 14.4044 9.33269 13.5215L9.45159 13.1648C9.70323 12.4099 10.1994 11.7603 10.8615 11.3189L11.3399 11H14.8399V2H6.58459C4.87509 2 3.28407 2.87338 2.36628 4.31563L1.59839 5.52231C0.810884 6.75981 0.685461 8.30641 1.26327 9.65463C1.61306 10.4708 2.4156 11 3.30357 11H5.83986V13.5585C5.83986 14.3546 6.48525 15 7.28138 15Z" fill="currentColor"/>
  </g>
</svg>