<?xml version="1.0" encoding="UTF-8"?>
<svg width="16" height="16" viewBox="0 0 16 16" xmlns="http://www.w3.org/2000/svg">
  <g id="tidy">
    <path fill-rule="evenodd" clip-rule="evenodd" d="M5.25016 2C5.25016 1.44772 5.69787 1 6.25016 1C6.80244 1 7.25016 1.44772 7.25016 2V6H8.25016C9.76895 6 11.0002 7.231 11.0002 8.74979V10.2455C11.0002 12.6109 9.61506 14.202 9.02908 14.7693C8.86783 14.9254 8.65014 15 8.42571 15H1.04188C0.203413 15 -0.279283 14.0169 0.195037 13.3255C0.927463 12.2579 1.71445 10.9474 1.71445 10.2455V8.75019C1.71445 7.2314 2.94567 6 4.46445 6H5.25016V2ZM5.25016 8V7.5H4.46445C3.77423 7.5 3.21445 8.0597 3.21445 8.75019V9.5H9.50016V8.74979C9.50016 8.05958 8.94067 7.5 8.25016 7.5H7.25016V8C7.25016 8.55228 6.80244 9 6.25016 9C5.69787 9 5.25016 8.55228 5.25016 8ZM9.43566 11H3.11006C3.07446 11.1365 3.03328 11.2636 2.99239 11.378C2.87567 11.7043 2.72099 12.0344 2.55733 12.3459C2.35553 12.7301 2.11978 13.1241 1.87932 13.5H2.61619C2.73776 13.3689 2.84868 13.1978 2.95557 12.9902C3.0466 12.8134 3.10833 12.6689 3.17425 12.5146C3.2177 12.4129 3.26298 12.3069 3.31964 12.1846C3.49382 11.8088 3.93968 11.6454 4.31549 11.8195C4.6913 11.9937 4.85476 12.4396 4.68058 12.8154C4.65805 12.864 4.62734 12.935 4.59104 13.019C4.53086 13.1582 4.45524 13.3332 4.37623 13.5H8.17231C8.59967 13.036 9.2334 12.1727 9.43566 11ZM13.4999 9.75H14.9999V8.25H13.4999V9.75ZM14.9999 6.69762H11.4999V5.19762H14.9999V6.69762ZM9.49988 3.75H14.9999V2.25H9.49988V3.75Z" fill="currentColor"/>
  </g>
</svg>