<?xml version="1.0" encoding="UTF-8"?>
<svg width="16" height="16" viewBox="0 0 16 16"  xmlns="http://www.w3.org/2000/svg">
  <g id="timed-out" clip-path="url(#clip0_3017_123)">
<path fill-rule="evenodd" clip-rule="evenodd" d="M14.8458 0.472001L15.9058 1.532L13.5798 3.86C14.5696 5.20825 15.0439 6.86633 14.9169 8.53405C14.7899 10.2018 14.0699 11.7689 12.8874 12.9517C11.7048 14.1345 10.1379 14.8548 8.47017 14.9821C6.80247 15.1095 5.14429 14.6355 3.79584 13.646L1.52484 15.916L0.464844 14.856L14.8448 0.471001L14.8458 0.472001ZM12.5028 4.936L9.24884 8.189L11.5608 10.5L10.4998 11.56L8.18784 9.25L4.86984 12.568C5.92802 13.2784 7.20005 13.5992 8.46856 13.4757C9.73706 13.3521 10.9233 12.7919 11.8245 11.8907C12.7257 10.9894 13.286 9.80322 13.4095 8.53472C13.5331 7.26621 13.2122 5.99417 12.5018 4.936H12.5028ZM7.99984 1C9.35284 1 10.6158 1.384 11.6868 2.048L10.5888 3.146C9.54826 2.58994 8.35644 2.38324 7.18938 2.55643C6.02232 2.72961 4.94188 3.27349 4.10761 4.10777C3.27334 4.94204 2.72945 6.02248 2.55627 7.18954C2.38309 8.3566 2.58979 9.54841 3.14584 10.589L2.04784 11.687C1.39083 10.6267 1.02908 9.41004 1.00004 8.163C0.970992 6.91596 1.2757 5.68381 1.88263 4.59404C2.48957 3.50427 3.37667 2.59648 4.45217 1.9646C5.52766 1.33272 6.75246 0.999697 7.99984 1ZM8.86684 3.359L8.86584 4.869L7.36584 6.369V3.359H8.86684Z" fill="currentColor"/>
</g>
<defs>
<clipPath id="clip0_3017_123">
<rect width="16" height="16" fill="currentColor"/>
</clipPath>
</defs>
</svg>