<?xml version="1.0" encoding="UTF-8"?>
<svg width="16" height="16" viewBox="0 0 16 16" xmlns="http://www.w3.org/2000/svg">
  <g id="topic">
    <path d="M8.086 1C8.21748 0.999897 8.34769 1.02572 8.46918 1.076C8.59066 1.12628 8.70104 1.20002 8.794 1.293L12.707 5.207C12.8945 5.39449 12.9999 5.64881 13 5.914V13.5C13 13.8978 12.842 14.2794 12.5607 14.5607C12.2794 14.842 11.8978 15 11.5 15H4.5C4.10218 15 3.72064 14.842 3.43934 14.5607C3.15804 14.2794 3 13.8978 3 13.5V2.5C3 2.10218 3.15804 1.72064 3.43934 1.43934C3.72064 1.15804 4.10218 1 4.5 1H8.086ZM6.991 2.5H4.5V13.5H11.5V7.008H9.242C8.67187 7.00807 8.12298 6.79171 7.70625 6.40263C7.28951 6.01356 7.03602 5.48079 6.997 4.912L6.992 4.758L6.99 2.5H6.991ZM9.991 9.234V10.734H5.991V9.234H9.991ZM8.491 3.112V4.758C8.491 5.138 8.774 5.452 9.141 5.501L9.241 5.508H10.887L8.491 3.112Z" fill="currentColor"/>
  </g>
</svg>