<?xml version="1.0" encoding="UTF-8"?>
<svg width="16" height="16" viewBox="0 0 16 16" xmlns="http://www.w3.org/2000/svg">
  <g id="usb">
    <path fill-rule="evenodd" clip-rule="evenodd" d="M9.5 2.5L8 0.5L6.5 2.5H7.375V9.87235L4.625 8.15359V7.36399C5.14138 7.12699 5.5 6.60537 5.5 6C5.5 5.17157 4.82843 4.5 4 4.5C3.17157 4.5 2.5 5.17157 2.5 6C2.5 6.60537 2.85862 7.12699 3.375 7.36399V8.5C3.375 8.71549 3.48601 8.91579 3.66875 9.03L7.375 11.3464V12.386C6.85862 12.623 6.5 13.1446 6.5 13.75C6.5 14.5784 7.17157 15.25 8 15.25C8.82843 15.25 9.5 14.5784 9.5 13.75C9.5 13.1446 9.14138 12.623 8.625 12.386V11.0108C8.62511 11.004 8.62511 10.9972 8.625 10.9904V9.82164L11.8633 7.50858C12.0275 7.39126 12.125 7.20184 12.125 7V5.5H12.75V3H10.25V5.5H10.875V6.67836L8.625 8.28551V2.5H9.5Z" fill="currentColor"/>
  </g>
</svg>