<?xml version="1.0" encoding="UTF-8"?>
<svg width="16" height="16" viewBox="0 0 16 16"  xmlns="http://www.w3.org/2000/svg">
  <g id="user-group" clip-path="url(#clip0_3017_118)">
<path d="M6.41 4.097C7.38105 4.09753 8.31213 4.48372 8.99849 5.17064C9.68484 5.85755 10.0703 6.78895 10.07 7.76V8.218C10.0714 9.17459 9.69724 10.0935 9.028 10.777C10.0939 11.125 11.0278 11.7908 11.7043 12.6849C12.3809 13.579 12.7678 14.6587 12.813 15.779L12.817 16H0C0 13.56 1.59 11.493 3.79 10.776C3.11999 10.0933 2.74536 9.17453 2.747 8.218V7.76C2.74687 7.27902 2.84149 6.80272 3.02547 6.35831C3.20944 5.9139 3.47916 5.51008 3.81922 5.16993C4.15928 4.82977 4.56302 4.55994 5.00738 4.37585C5.45174 4.19175 5.92902 4.097 6.41 4.097ZM7.325 12.007H5.494C4.73556 12.0067 3.99273 12.2224 3.35238 12.6288C2.71203 13.0353 2.20063 13.6156 1.878 14.302L1.791 14.499H11.026L10.958 14.339C10.6535 13.674 10.1724 13.1053 9.56712 12.6948C8.9618 12.2843 8.25545 12.0478 7.525 12.011L7.325 12.006V12.007ZM9.409 8.37837e-08C10.3802 8.37837e-08 11.3117 0.385817 11.9984 1.07258C12.6852 1.75933 13.071 2.69078 13.071 3.662V4.12C13.0727 5.07693 12.6985 5.99625 12.029 6.68C13.0949 7.02801 14.0288 7.69375 14.7053 8.58787C15.3819 9.48198 15.7688 10.5617 15.814 11.682L15.818 11.902H12.99C12.5774 11.3307 12.0808 10.825 11.517 10.402H14.027L13.959 10.242C13.7292 9.74131 13.3986 9.2934 12.9879 8.92622C12.5772 8.55905 12.0952 8.28051 11.572 8.108V7.76C11.572 6.956 11.389 6.194 11.061 5.516L11.084 5.489C11.359 5.153 11.534 4.734 11.567 4.275L11.572 4.12V3.662C11.5724 3.17361 11.4074 2.69948 11.1039 2.31683C10.8005 1.93418 10.3764 1.66555 9.90072 1.5547C9.42508 1.44385 8.92592 1.49731 8.48454 1.70636C8.04316 1.91542 7.68557 2.26776 7.47 2.706C6.95327 2.59863 6.42323 2.57031 5.898 2.622C6.12232 1.86465 6.58551 1.20013 7.21844 0.727594C7.85137 0.255057 8.61913 -0.000168825 9.409 8.37837e-08ZM6.409 5.597C5.86217 5.59688 5.33562 5.80396 4.93538 6.17656C4.53514 6.54915 4.29095 7.05956 4.252 7.605L4.247 7.76V8.218C4.24512 8.77931 4.46162 9.31934 4.85072 9.7239C5.23981 10.1285 5.771 10.3659 6.33195 10.3859C6.8929 10.4059 7.43964 10.2069 7.85656 9.83108C8.27348 9.45525 8.52789 8.93201 8.566 8.372L8.571 8.218V7.76C8.57113 7.47608 8.51534 7.19492 8.40681 6.93256C8.29828 6.67021 8.13914 6.4318 7.93847 6.23094C7.7378 6.03009 7.49954 5.87073 7.23729 5.76196C6.97503 5.65318 6.69292 5.59713 6.409 5.597Z" fill="currentColor"/>
</g>
<defs>
<clipPath id="clip0_3017_118">
<rect width="16" height="16" fill="currentColor"/>
</clipPath>
</defs>
</svg>