<?xml version="1.0" encoding="UTF-8"?>
<svg width="16" height="16" viewBox="0 0 16 16" xmlns="http://www.w3.org/2000/svg">
  <g id="user">
    <path d="M8 1C9.06087 1 10.0783 1.42143 10.8284 2.17157C11.5786 2.92172 12 3.93913 12 5V5.5C12.0013 6.54493 11.5923 7.54859 10.861 8.295C12.0281 8.67572 13.0503 9.40526 13.7897 10.3852C14.5291 11.3651 14.9501 12.5483 14.996 13.775L15 14H1C1.00013 12.7338 1.40061 11.5001 2.14418 10.4753C2.88776 9.45043 3.93634 8.68695 5.14 8.294C4.40798 7.54842 3.99851 6.54487 4 5.5V5C4 3.93913 4.42143 2.92172 5.17157 2.17157C5.92172 1.42143 6.93913 1 8 1ZM9 9.5H7C6.08957 9.49995 5.20052 9.77593 4.45016 10.2915C3.6998 10.8071 3.12339 11.5381 2.797 12.388L2.757 12.5H13.243L13.213 12.416C12.9031 11.5934 12.3592 10.8794 11.6484 10.3622C10.9377 9.84489 10.0911 9.54693 9.213 9.505L9 9.5ZM8 2.5C7.36528 2.4999 6.75429 2.74123 6.29095 3.17504C5.82762 3.60885 5.54664 4.20265 5.505 4.836L5.5 5V5.5C5.49842 6.14989 5.74997 6.77485 6.20134 7.24242C6.65271 7.70998 7.26842 7.98341 7.91795 8.00474C8.56749 8.02606 9.19981 7.79361 9.68087 7.35666C10.1619 6.9197 10.4539 6.31259 10.495 5.664L10.5 5.5V5C10.5 4.33696 10.2366 3.70107 9.76777 3.23223C9.29893 2.76339 8.66304 2.5 8 2.5Z" fill="currentColor"/>
  </g>
</svg>